<svg xmlns="http://www.w3.org/2000/svg" width="271.908" height="70.56" viewBox="0 0 271.908 70.56"><defs><style>.a{fill:#fff;fill-rule:evenodd;}</style></defs><g transform="translate(-650.413 -45.492)"><path class="a" d="M561.2,44.745h-1.53a.141.141,0,0,0-.16.158v1.32a.141.141,0,0,0,.16.158h1.53a.14.14,0,0,0,.159-.158V44.9A.14.14,0,0,0,561.2,44.745Z" transform="translate(186.218 14.916)"/><path class="a" d="M582.05,50.287a1.337,1.337,0,0,1-1.162.475,1.362,1.362,0,0,1-1.108-.475,2.1,2.1,0,0,1-.369-1.425,2.189,2.189,0,0,1,.369-1.425,1.362,1.362,0,0,1,1.108-.475c1.056,0,1.532.633,1.532,1.9A2.19,2.19,0,0,1,582.05,50.287Zm1.9-3.061a3.05,3.05,0,0,0-.687-1.056,3.508,3.508,0,0,0-1.054-.633,5.035,5.035,0,0,0-1.321-.159,2.935,2.935,0,0,0-2.955,1.8,4.406,4.406,0,0,0-.265,1.531v.475a2.024,2.024,0,0,1-.236,1.034.878.878,0,0,1-.834.391H566.374a1.587,1.587,0,0,1-.95-.211.856.856,0,0,1-.369-.739V47.121a.14.14,0,0,0-.159-.158h-1.478a.14.14,0,0,0-.159.158v4.7a1.95,1.95,0,0,1-.581,1.531,2.159,2.159,0,0,1-1.477.475,4.139,4.139,0,0,1-.74-.106,1.643,1.643,0,0,1-.685-.317,2,2,0,0,1-.476-.686,2.091,2.091,0,0,1-.211-1.056,3.19,3.19,0,0,1,.211-1.267,7.081,7.081,0,0,0,.423-1.267l-1.266-.475a.238.238,0,0,0-.265,0,5.436,5.436,0,0,0-.633,1.478,4.9,4.9,0,0,0-.262,1.689,3.57,3.57,0,0,0,.262,1.583,3.146,3.146,0,0,0,.845,1.161,2.952,2.952,0,0,0,1.214.633,4.875,4.875,0,0,0,1.53.211,5,5,0,0,0,1.584-.211A3.575,3.575,0,0,0,564,54.563a3.741,3.741,0,0,0,.792-1.161,4.377,4.377,0,0,0,.265-1.531V51.66c0,.046.129.15.163.18a1.831,1.831,0,0,0,1.186.341c.9.042,1.8.013,2.7.01l1.51,0h5.582a5.839,5.839,0,0,0,.948-.058,2.635,2.635,0,0,0,.479-.123,2.105,2.105,0,0,0,.421-.242,1.245,1.245,0,0,0,.37-.369,2.8,2.8,0,0,0,1.054.686,4.044,4.044,0,0,0,1.425.211,3.749,3.749,0,0,0,1.373-.211,2.4,2.4,0,0,0,1-.581,2.451,2.451,0,0,0,.687-1.056,4.6,4.6,0,0,0,.211-1.583A5.125,5.125,0,0,0,583.95,47.226Z" transform="translate(185.48 15.126)"/><path class="a" d="M583.259,43.432h-1.743c-.031,0-.116-.133-.135-.157-.033-.047-.072-.09-.108-.137a1.062,1.062,0,0,1-.171-.324.917.917,0,0,1,.14-.9.771.771,0,0,1,.665-.2,1.953,1.953,0,0,1,.665.359l.58-.422a1.469,1.469,0,0,0-.58-.581,1.906,1.906,0,0,0-1.53,0,1.642,1.642,0,0,0-.693.58,1.483,1.483,0,0,0-.2,1.147c.025.113.067.221.1.332.009.03.079.311.109.311h-.687v.745h3.589Z" transform="translate(192.928 13.636)"/><path class="a" d="M595.807,42.607v8.551a2.131,2.131,0,0,1-.421,1.531,1.783,1.783,0,0,1-1.426.475h-5.278A3.167,3.167,0,0,1,587.626,53a1.415,1.415,0,0,1-.738-.633,1.332,1.332,0,0,1-.633.581,2.535,2.535,0,0,1-1.161.212h-6.81a.14.14,0,0,1-.159-.159V51.737a.14.14,0,0,1,.159-.158h2.851V44.823a.139.139,0,0,1,.157-.158h1.48a.139.139,0,0,1,.157.158V51.58h1.637a1.025,1.025,0,0,0,.421-.053.411.411,0,0,0,.212-.212,1.274,1.274,0,0,0,.105-.475V42.607a.14.14,0,0,1,.159-.158h1.478a.139.139,0,0,1,.157.158v8.181c.107.527.528.792,1.32.792h4.857a.846.846,0,0,0,.58-.158.92.92,0,0,0,.159-.633V42.607a.14.14,0,0,1,.159-.158h1.478A.139.139,0,0,1,595.807,42.607Z" transform="translate(192.414 14.151)"/><path class="a" d="M600.346,57a.137.137,0,0,1-.155-.155v-1.35c0-.108.052-.16.155-.16l1.336,0a.142.142,0,0,1,.16.159v1.35a.141.141,0,0,1-.16.155Zm-2.062,0a.141.141,0,0,1-.16-.155v-1.35a.142.142,0,0,1,.16-.16h1.336a.142.142,0,0,1,.16.16v1.35a.141.141,0,0,1-.16.155Zm-2.093-6.345a1.989,1.989,0,0,0,.223.995,1.82,1.82,0,0,0,.57.639,2.236,2.236,0,0,0,.794.329,4.392,4.392,0,0,0,.9.093l3.16-.005a2.355,2.355,0,0,0,1.262-.243.728.728,0,0,0,.34-.6.662.662,0,0,0-.263-.474,5.85,5.85,0,0,0-.665-.5c-.273-.17-.561-.356-.866-.556a5.829,5.829,0,0,1-.865-.686,3.438,3.438,0,0,1-.665-.856,2.266,2.266,0,0,1-.263-1.108,2.546,2.546,0,0,1,.221-1.062,2.662,2.662,0,0,1,.629-.871,3.042,3.042,0,0,1,.974-.583,3.72,3.72,0,0,1,1.282-.211,3.856,3.856,0,0,1,1.758.34,3.619,3.619,0,0,1,1.12.887c.061.072.047.149-.052.221l-.856.83a.14.14,0,0,1-.221-.015,2.779,2.779,0,0,0-.712-.51,2.223,2.223,0,0,0-.938-.18,1.623,1.623,0,0,0-.958.294.963.963,0,0,0-.423.856,1.046,1.046,0,0,0,.268.69,4.16,4.16,0,0,0,.674.613c.273.2.563.4.877.614a8.061,8.061,0,0,1,.87.665,3.743,3.743,0,0,1,.676.773,1.692,1.692,0,0,1,.268.948,2.273,2.273,0,0,1-.176.9,1.887,1.887,0,0,1-.556.747,2.679,2.679,0,0,1-.98.5,5.173,5.173,0,0,1-1.448.181l-3.7,0a4.363,4.363,0,0,1-3.072-.943,3.338,3.338,0,0,1-1.005-2.562,5.584,5.584,0,0,1,.268-1.7,6.023,6.023,0,0,1,.665-1.459c.056-.1.133-.108.243-.031l1.282.5c.052.021.083.052.088.087a.212.212,0,0,1-.025.119,7.6,7.6,0,0,0-.485,1.026A3.638,3.638,0,0,0,596.192,50.651Z" transform="translate(197.825 14.986)"/><path class="a" d="M610.133,49.488a4.819,4.819,0,0,1-.144,1.294,1.966,1.966,0,0,1-.428.825,1.544,1.544,0,0,1-.732.443,3.912,3.912,0,0,1-1.046.124H604.1c-.108,0-.159-.052-.159-.155V50.776a.139.139,0,0,1,.159-.16h2.948a3,3,0,0,0,.686-.062.739.739,0,0,0,.387-.211.711.711,0,0,0,.175-.387,3.519,3.519,0,0,0,.041-.582V48.323c0-.923-.541-1.381-1.618-1.381h-1.907c-.1,0-.155-.052-.155-.16V45.524a.137.137,0,0,1,.155-.155h2.542a2.868,2.868,0,0,1,2.019.686,2.725,2.725,0,0,1,.758,2.128Z" transform="translate(201.008 15.124)"/><path class="a" d="M632.845,49.679a4.445,4.445,0,0,1-.317.528,2.013,2.013,0,0,1-.474.475,3.7,3.7,0,0,1-.528.422,4.858,4.858,0,0,0-.738-1.689,4.241,4.241,0,0,0-1.214-1.161,2.116,2.116,0,0,1,.633-.211,3.513,3.513,0,0,1,1.109-.158,2.521,2.521,0,0,1,1.161.264.924.924,0,0,1,.475.9A2.621,2.621,0,0,1,632.845,49.679Zm-18.369,1.9h-1.425a1.618,1.618,0,0,1-1.161-.369,1.717,1.717,0,0,1-.369-1.32,2.189,2.189,0,0,1,.369-1.425A1.263,1.263,0,0,1,613,47.938a1.232,1.232,0,0,1,1.108.475,2.124,2.124,0,0,1,.369,1.372Zm41.645-9.131h-1.477a.14.14,0,0,0-.159.158v8.128a.9.9,0,0,1-.211.686.7.7,0,0,1-.529.158h-2.955a1.509,1.509,0,0,1-1-.264.785.785,0,0,1-.316-.686V46.776a.14.14,0,0,0-.159-.158h-1.478a.139.139,0,0,0-.157.158v3.272c0,.317-.052.581-.052.792a.641.641,0,0,1-.16.475.48.48,0,0,1-.317.211,1.971,1.971,0,0,1-.58.053,1.1,1.1,0,0,1-.792-.211.884.884,0,0,1-.317-.739V48.043a.139.139,0,0,0-.157-.158h-1.478a.139.139,0,0,0-.157.158v2.006a3.467,3.467,0,0,1-.053.792,1.045,1.045,0,0,1-.107.475c-.052.106-.211.158-.369.211a1.64,1.64,0,0,1-.58.053,1.165,1.165,0,0,1-.845-.211.855.855,0,0,1-.264-.739V48.043a.14.14,0,0,0-.159-.158h-1.478a.139.139,0,0,0-.157.158v2.692a1.045,1.045,0,0,1-.107.475.37.37,0,0,1-.211.264.569.569,0,0,1-.423.106h-5.489a.672.672,0,0,1-.317-.053,4.338,4.338,0,0,0,.633-.422,7.532,7.532,0,0,0,.528-.686,3.149,3.149,0,0,0,.369-.739,2.471,2.471,0,0,0,.159-.9,2.177,2.177,0,0,0-.844-1.795,4.31,4.31,0,0,0-2.639-.633,5.369,5.369,0,0,0-1.321.106,5.722,5.722,0,0,0-1.108.264,1.846,1.846,0,0,0-.792.369c-.211.158-.316.264-.316.369v1.214c.053.053.105.158.211.211l.633.475a2.755,2.755,0,0,1,.581.528,6.582,6.582,0,0,1,.475.633,4.532,4.532,0,0,1,.369.9,6.911,6.911,0,0,1-.792.158H616.218V49.838a4.732,4.732,0,0,0-.211-1.636,2.45,2.45,0,0,0-.686-1.056,3.248,3.248,0,0,0-1-.633,5.33,5.33,0,0,0-1.32-.158,4.492,4.492,0,0,0-1.214.158,3.5,3.5,0,0,0-1.056.633,2.994,2.994,0,0,0-.686,1.108,4.179,4.179,0,0,0-.317,1.689,4.1,4.1,0,0,0,.264,1.478,2.1,2.1,0,0,0,.581,1,2.643,2.643,0,0,0,1,.581,4.757,4.757,0,0,0,1.32.158h1.583a3.169,3.169,0,0,1-.105.792,1.016,1.016,0,0,1-.264.475,1.147,1.147,0,0,1-.423.264,2.562,2.562,0,0,1-.633.053h-1.9a.168.168,0,0,0-.157.158v1.267a.168.168,0,0,0,.157.158h2.165a2.967,2.967,0,0,0,2.165-.686,2.7,2.7,0,0,0,.738-2.164v-.317H629.15a8.881,8.881,0,0,0,1.056-.106,4.8,4.8,0,0,0,1.109-.422,3.08,3.08,0,0,0,.949.422,7.2,7.2,0,0,0,1.109.106h6.07a3.509,3.509,0,0,0,1.161-.211,1.228,1.228,0,0,0,.633-.633,1.6,1.6,0,0,0,1.531.845h.686a3.26,3.26,0,0,0,1.161-.211,1.233,1.233,0,0,0,.633-.633,1.67,1.67,0,0,0,.581.633,2.516,2.516,0,0,0,.949.211h.686a3.523,3.523,0,0,0,1.162-.211.66.66,0,1,1,1.32.053,3.506,3.506,0,0,0,1.108.158h3.378a1.763,1.763,0,0,0,1.426-.528,2.251,2.251,0,0,0,.421-1.478V42.607A.14.14,0,0,0,656.121,42.448Z" transform="translate(202.933 14.151)"/><path class="a" d="M647.935,52.98c0,.1-.052.155-.16.155H646.3a.133.133,0,0,1-.16-.149V42.614a.144.144,0,0,1,.16-.165h1.474a.14.14,0,0,1,.16.159Z" transform="translate(215.055 14.152)"/><path class="a" d="M656.845,49.48a4.809,4.809,0,0,1-.144,1.293,1.963,1.963,0,0,1-.428.825,1.541,1.541,0,0,1-.732.444,3.937,3.937,0,0,1-1.048.124h-3.68c-.108,0-.158-.052-.158-.155V50.769a.139.139,0,0,1,.158-.16h2.948a3,3,0,0,0,.686-.062.739.739,0,0,0,.387-.211.711.711,0,0,0,.175-.387,3.65,3.65,0,0,0,.041-.583V48.315c0-.923-.541-1.381-1.618-1.381h-1.907c-.1,0-.155-.052-.155-.16V45.516a.137.137,0,0,1,.155-.155h2.54a2.874,2.874,0,0,1,2.021.686,2.726,2.726,0,0,1,.758,2.129Z" transform="translate(216.558 15.121)"/><path class="a" d="M680.662,43.161h-1.32c-.105,0-.157,0-.157.106v1.372a.139.139,0,0,0,.157.158h1.32a.139.139,0,0,0,.159-.158V43.266C680.82,43.161,680.768,43.161,680.662,43.161Zm2.058,0H681.4c-.105,0-.159,0-.159.106v1.372a.14.14,0,0,0,.159.158h1.318a.14.14,0,0,0,.16-.158V43.266C682.88,43.161,682.826,43.161,682.72,43.161Z" transform="translate(226.055 14.388)"/><path class="a" d="M689.442,46.776v4.381a2.244,2.244,0,0,1-.421,1.478,1.936,1.936,0,0,1-1.425.475h-5.542a3.625,3.625,0,0,1-1.161-.158,1.352,1.352,0,0,1-.792-.739,1.65,1.65,0,0,1-.845.739,4.361,4.361,0,0,1-1.266.158H658.512a1.778,1.778,0,0,1-1.425-.475,1.986,1.986,0,0,1-.475-1.478V42.607a.139.139,0,0,1,.157-.158h1.478a.14.14,0,0,1,.159.158v8.128a1.177,1.177,0,0,0,.211.686.852.852,0,0,0,.581.158h18.1a4.818,4.818,0,0,0,.5-.033.934.934,0,0,0,.469-.163.854.854,0,0,0,.291-.5,1.972,1.972,0,0,0,.04-.443c0-.128.019-.25.012-.38a5.166,5.166,0,0,0-.1-.755,1.855,1.855,0,0,0-.317-.739,1.647,1.647,0,0,0-.581-.475,1.615,1.615,0,0,0-.9-.211,2.525,2.525,0,0,0-.952.211,2.8,2.8,0,0,0-.792.58c-.053.053-.105.053-.211,0l-.844-.844c-.053-.106-.053-.158,0-.211a5.027,5.027,0,0,1,1.161-.95,3.988,3.988,0,0,1,1.689-.369,4.257,4.257,0,0,1,1.742.369,2.77,2.77,0,0,1,1.161.845,4.794,4.794,0,0,1,.633,1.267,6.69,6.69,0,0,1,.159,1.478v.422a.806.806,0,0,0,.369.633,1.566,1.566,0,0,0,.95.264h5.066a.657.657,0,0,0,.581-.211c.159-.106.211-.317.211-.633V46.776a.14.14,0,0,1,.159-.158h1.478A.139.139,0,0,1,689.442,46.776Z" transform="translate(218.541 14.151)"/><path class="a" d="M687.224,51.574h1.65a.785.785,0,0,0,.577-.18.9.9,0,0,0,.185-.65V42.606c0-.108.052-.16.155-.16h1.48c.1,0,.155.052.155.16v8.546a2.2,2.2,0,0,1-.428,1.5,1.83,1.83,0,0,1-1.429.479h-6.963c-.108,0-.16-.052-.16-.155V51.734a.14.14,0,0,1,.16-.16h2.824V44.817a.137.137,0,0,1,.155-.155h1.48a.14.14,0,0,1,.16.155Z" transform="translate(227.14 14.15)"/><path class="a" d="M692.448,52.976c0,.1-.052.155-.16.155h-1.474c-.108,0-.16-.052-.16-.155V42.606a.14.14,0,0,1,.16-.16h1.474a.14.14,0,0,1,.16.16Z" transform="translate(229.873 14.15)"/><path class="a" d="M560.292,55.109h-1.53a.14.14,0,0,0-.159.158V56.64a.14.14,0,0,0,.159.158h1.53a.14.14,0,0,0,.159-.158V55.267A.14.14,0,0,0,560.292,55.109Z" transform="translate(185.915 18.366)"/><path class="a" d="M569.756,55.109h-1.53a.14.14,0,0,0-.159.158V56.64a.14.14,0,0,0,.159.158h1.53a.14.14,0,0,0,.159-.158V55.267A.14.14,0,0,0,569.756,55.109Z" transform="translate(189.065 18.366)"/><path class="a" d="M573.447,57.683v4.381a2.13,2.13,0,0,1-.421,1.531,1.781,1.781,0,0,1-1.426.475h-.376c-.332,0-8.45.014-8.785,0a5.135,5.135,0,0,1-.946-.107,1.449,1.449,0,0,1-.66-.419v.317a12.335,12.335,0,0,1-.1,1.478,2.794,2.794,0,0,1-.477,1.056,2.285,2.285,0,0,1-.9.633,3.142,3.142,0,0,1-1.32.211h-.581a.14.14,0,0,1-.159-.158V65.812a.14.14,0,0,1,.159-.158h.369a1.322,1.322,0,0,0,.686-.158.948.948,0,0,0,.369-.422,1.767,1.767,0,0,0,.159-.792v-6.6a.14.14,0,0,1,.159-.158h1.478a.139.139,0,0,1,.157.158v3.853a1.006,1.006,0,0,0,.371.739,1.8,1.8,0,0,0,.949.211h8.762a.844.844,0,0,0,.58-.158.918.918,0,0,0,.159-.633V57.683a.14.14,0,0,1,.159-.158h1.478A.139.139,0,0,1,573.447,57.683Z" transform="translate(185.48 19.17)"/><path class="a" d="M573.825,58.9a1.3,1.3,0,0,0-1.124.536,2.313,2.313,0,0,0-.4,1.428,1.787,1.787,0,0,0,.4,1.35,1.691,1.691,0,0,0,1.166.361h1.412V60.784a2.383,2.383,0,0,0-.345-1.408A1.282,1.282,0,0,0,573.825,58.9Zm-.14,5.232a4.911,4.911,0,0,1-1.329-.165,2.217,2.217,0,0,1-.974-.551,2.478,2.478,0,0,1-.609-.995,5.33,5.33,0,0,1,.047-3.154,3.059,3.059,0,0,1,.712-1.114,2.813,2.813,0,0,1,1.041-.629,3.944,3.944,0,0,1,1.237-.2,4.207,4.207,0,0,1,1.31.191,2.643,2.643,0,0,1,1.025.593,2.749,2.749,0,0,1,.665,1.072,4.732,4.732,0,0,1,.237,1.613v3.675a2.805,2.805,0,0,1-.742,2.16,3.158,3.158,0,0,1-2.175.676h-2.145a.141.141,0,0,1-.159-.16V65.887a.14.14,0,0,1,.159-.155h1.855a2.97,2.97,0,0,0,.588-.057.974.974,0,0,0,.464-.227,1.111,1.111,0,0,0,.289-.485,2.672,2.672,0,0,0,.1-.835Z" transform="translate(189.894 19.104)"/><path class="a" d="M576.274,67.23a.14.14,0,0,1-.16-.16V65.812c0-.1.052-.155.16-.155h.351a1.218,1.218,0,0,0,.958-.329,1.483,1.483,0,0,0,.295-1.006V57.688c0-.1.052-.155.16-.155h1.474a.14.14,0,0,1,.159.155v6.665q0,2.877-2.808,2.876Z" transform="translate(191.744 19.173)"/><path class="a" d="M593.05,54.555v8.551a2.41,2.41,0,0,1-.421,1.531,1.992,1.992,0,0,1-1.478.475h-1.833c-.452,0-.9.01-1.354-.012-.227-.011-.454-.029-.68-.06a2.028,2.028,0,0,1-.62-.14,1.4,1.4,0,0,1-.792-.686,1.263,1.263,0,0,1-.792.686,3.292,3.292,0,0,1-1.32.212h-3.537a.14.14,0,0,1-.157-.159V63.685a.139.139,0,0,1,.157-.158h2.9a2.373,2.373,0,0,0,.685-.053.637.637,0,0,0,.581-.581,1.957,1.957,0,0,0,.053-.581V61.258a1.31,1.31,0,0,0-.424-1.056,1.951,1.951,0,0,0-1.213-.317h-1.9a.139.139,0,0,1-.157-.158V58.46a.139.139,0,0,1,.157-.159h2.429a3.25,3.25,0,0,1,2.111.634,2.717,2.717,0,0,1,.792,2.164v1.478a.781.781,0,0,0,.317.686,1.433,1.433,0,0,0,.949.264h2.956a.852.852,0,0,0,.581-.158c.157-.106.211-.317.211-.633V54.555a.14.14,0,0,1,.159-.158h1.478A.139.139,0,0,1,593.05,54.555Z" transform="translate(193.06 18.128)"/><path class="a" d="M593.08,64.94c0,.1-.052.155-.16.155h-1.474c-.108,0-.16-.052-.16-.155l-.005-10.371a.14.14,0,0,1,.16-.159h1.474a.14.14,0,0,1,.16.159Z" transform="translate(196.793 18.133)"/><path class="a" d="M597.21,58.893a1.3,1.3,0,0,0-1.124.536,2.313,2.313,0,0,0-.4,1.428,1.776,1.776,0,0,0,.4,1.35,1.682,1.682,0,0,0,1.165.361h1.412V60.78a2.384,2.384,0,0,0-.345-1.408A1.282,1.282,0,0,0,597.21,58.893Zm-.14,5.232a4.928,4.928,0,0,1-1.33-.165,2.215,2.215,0,0,1-.973-.551,2.46,2.46,0,0,1-.609-.995,5.33,5.33,0,0,1,.047-3.154,3.06,3.06,0,0,1,.712-1.114,2.814,2.814,0,0,1,1.041-.629,3.944,3.944,0,0,1,1.237-.2,4.207,4.207,0,0,1,1.31.191,2.641,2.641,0,0,1,1.025.593,2.748,2.748,0,0,1,.665,1.072,4.765,4.765,0,0,1,.237,1.618v3.676a2.792,2.792,0,0,1-.742,2.154,3.158,3.158,0,0,1-2.175.676H595.37a.142.142,0,0,1-.16-.16V65.883a.141.141,0,0,1,.16-.155h1.855a2.972,2.972,0,0,0,.588-.057.973.973,0,0,0,.464-.227,1.111,1.111,0,0,0,.289-.485,2.67,2.67,0,0,0,.1-.835Z" transform="translate(197.679 19.102)"/><path class="a" d="M604.763,54.634h-1.373a.14.14,0,0,0-.159.158l.053,1.373a.112.112,0,0,0,.105.105h1.373c.105,0,.157-.052.157-.105V54.792A.139.139,0,0,0,604.763,54.634Zm2.057,0H605.5a.14.14,0,0,0-.159.158v1.373c0,.053.052.105.159.105h1.318c.107,0,.159-.052.159-.105V54.792A.14.14,0,0,0,606.82,54.634Z" transform="translate(200.771 18.208)"/><path class="a" d="M612.035,63.425h-1.478a.139.139,0,0,0-.157.158V64.9a.139.139,0,0,0,.157.159h1.478a.14.14,0,0,0,.157-.159v-1.32A.139.139,0,0,0,612.035,63.425Z" transform="translate(203.157 21.134)"/><path class="a" d="M625.137,62.446a1.558,1.558,0,0,1-1.162.422,1.356,1.356,0,0,1-1.109-.422,2.944,2.944,0,0,1,0-2.85,1.235,1.235,0,0,1,1.109-.475c1,0,1.53.633,1.53,1.9A2.563,2.563,0,0,1,625.137,62.446ZM606.82,60.441a1.907,1.907,0,0,1-.369,1.267,1.511,1.511,0,0,1-1.108.422,1.36,1.36,0,0,1-1.056-.369,1.29,1.29,0,0,1-.371-1.056,1.581,1.581,0,0,1,.371-1.267,1.942,1.942,0,0,1,1.108-.317h1.425Zm20.163-1.056a2.46,2.46,0,0,0-.685-1.056,3.255,3.255,0,0,0-1-.633,5.306,5.306,0,0,0-1.32-.159,4.615,4.615,0,0,0-1.266.159,2.588,2.588,0,0,0-1.056.581,3.035,3.035,0,0,0-.685,1.056,3.763,3.763,0,0,0-.22,2.037.859.859,0,0,1,0,.165,1.425,1.425,0,0,1-.678,1.176.669.669,0,0,1-.317.053h-.9a1.592,1.592,0,0,1-.95-.211.825.825,0,0,1-.369-.686V61.5a7.105,7.105,0,0,0-.159-1.531,4.717,4.717,0,0,0-.633-1.267,2.77,2.77,0,0,0-1.161-.845,4.282,4.282,0,0,0-1.742-.317,3.33,3.33,0,0,0-1.689.37,3.84,3.84,0,0,0-1.162.9c-.052.053-.052.106.053.211l.793.844c.105.053.157.053.209,0a4.389,4.389,0,0,1,.793-.58,2.553,2.553,0,0,1,.949-.158,2.265,2.265,0,0,1,.9.158,1.646,1.646,0,0,1,.581.475,1.853,1.853,0,0,1,.317.739,5.755,5.755,0,0,1,.105.95c0,.264-.052.475-.052.633a1.072,1.072,0,0,1-.212.422.847.847,0,0,1-.369.211,2.782,2.782,0,0,1-.685.053h-5.016a.846.846,0,0,1-.58-.158,1.082,1.082,0,0,1-.159-.686V56.851a.14.14,0,0,0-.159-.158h-1.478a.14.14,0,0,0-.159.158v.686h-1.582a4.12,4.12,0,0,0-1.162.159,2.518,2.518,0,0,0-1.689,1.478,4.41,4.41,0,0,0-.264,1.531,5.017,5.017,0,0,0,.211,1.372,2.892,2.892,0,0,0,.688.9,2.1,2.1,0,0,0,.949.527,4.1,4.1,0,0,0,1.162.159,2.925,2.925,0,0,0,.949-.106,2.783,2.783,0,0,0,.792-.422,1.716,1.716,0,0,0,.581.95,2.585,2.585,0,0,0,1.213.264h6.387a3.914,3.914,0,0,0,1.266-.212,1.435,1.435,0,0,0,.845-.738,1.512,1.512,0,0,0,.792.738,2.532,2.532,0,0,0,1.161.212h.528c.159,0,.317-.053.476-.053a1.573,1.573,0,0,0,.528-.106,2.161,2.161,0,0,0,.474-.264.746.746,0,0,1,1.425.317,5.781,5.781,0,0,0,1.425.211,3.457,3.457,0,0,0,1.32-.211,2.587,2.587,0,0,0,1.056-.581,2.966,2.966,0,0,0,.633-1.056,4.5,4.5,0,0,0,.265-1.583A5.05,5.05,0,0,0,626.983,59.385Z" transform="translate(200.402 18.893)"/><path class="a" d="M628.285,63.425h-1.53a.141.141,0,0,0-.16.158V64.9a.141.141,0,0,0,.16.159h1.53a.14.14,0,0,0,.159-.159v-1.32A.14.14,0,0,0,628.285,63.425Z" transform="translate(208.548 21.134)"/><path class="a" d="M634.933,54.555v8.551a2.245,2.245,0,0,1-.421,1.478,1.632,1.632,0,0,1-1.425.528h-1.532a2.747,2.747,0,0,1-.95-.159,1.317,1.317,0,0,1-.738-.686,1.228,1.228,0,0,1-.633.633,3.579,3.579,0,0,1-1.214.212H626.7a4.738,4.738,0,0,1-.95-.106,1.053,1.053,0,0,1-.633-.422v.264a6.054,6.054,0,0,1-.159,1.478,3.042,3.042,0,0,1-.476,1.108,2.535,2.535,0,0,1-.844.633,5,5,0,0,1-1.372.211h-.582a.14.14,0,0,1-.157-.158V66.853a.14.14,0,0,1,.157-.158h.371a1.2,1.2,0,0,0,.686-.158.93.93,0,0,0,.421-.475,2.727,2.727,0,0,0,.107-.739c0-.264.053-.633.053-1V58.724a.139.139,0,0,1,.157-.158h1.478a.14.14,0,0,1,.159.158v3.853a.781.781,0,0,0,.317.686,1.5,1.5,0,0,0,1,.264h1.109a1.025,1.025,0,0,0,.421-.053.35.35,0,0,0,.212-.264,1.067,1.067,0,0,0,.1-.475V58.724a.14.14,0,0,1,.159-.158h1.479a.139.139,0,0,1,.157.158v3.853a.821.821,0,0,0,.37.686,1.434,1.434,0,0,0,.949.264h1a.948.948,0,0,0,.581-.158,1.189,1.189,0,0,0,.16-.686V54.555a.139.139,0,0,1,.157-.158h1.478A.14.14,0,0,1,634.933,54.555Z" transform="translate(206.861 18.128)"/><path class="a" d="M634.872,64.932c0,.1-.051.155-.16.155h-1.473c-.109,0-.16-.052-.16-.155l-.005-10.371a.14.14,0,0,1,.16-.159h1.474a.139.139,0,0,1,.159.159Z" transform="translate(210.705 18.13)"/><path class="a" d="M639,58.885a1.3,1.3,0,0,0-1.122.536,2.3,2.3,0,0,0-.4,1.428,1.784,1.784,0,0,0,.4,1.35,1.687,1.687,0,0,0,1.165.361h1.413V60.772a2.383,2.383,0,0,0-.345-1.408A1.284,1.284,0,0,0,639,58.885Zm-.139,5.232a4.943,4.943,0,0,1-1.33-.165,2.218,2.218,0,0,1-.974-.552,2.474,2.474,0,0,1-.608-.994A5.3,5.3,0,0,1,636,59.252a3.03,3.03,0,0,1,.712-1.114,2.811,2.811,0,0,1,1.04-.629,3.945,3.945,0,0,1,1.238-.2,4.2,4.2,0,0,1,1.309.191,2.647,2.647,0,0,1,1.026.593,2.751,2.751,0,0,1,.665,1.072,4.8,4.8,0,0,1,.237,1.619v3.675a2.787,2.787,0,0,1-.744,2.154,3.157,3.157,0,0,1-2.175.675h-2.143a.142.142,0,0,1-.16-.16V65.875a.14.14,0,0,1,.16-.155h1.855a2.97,2.97,0,0,0,.588-.057.981.981,0,0,0,.464-.227,1.12,1.12,0,0,0,.289-.485,2.672,2.672,0,0,0,.1-.835Z" transform="translate(211.591 19.1)"/><path class="a" d="M648.151,65.6h-1.32a.14.14,0,0,0-.159.158v1.372a.14.14,0,0,0,.159.158h1.32a.14.14,0,0,0,.159-.158V65.761A.14.14,0,0,0,648.151,65.6Zm2.058,0h-1.318a.141.141,0,0,0-.16.158v1.372a.141.141,0,0,0,.16.158h1.318a.14.14,0,0,0,.159-.158V65.761A.14.14,0,0,0,650.209,65.6Z" transform="translate(215.232 21.859)"/><path class="a" d="M655.53,55.109H654a.14.14,0,0,0-.159.158v1.32a.14.14,0,0,0,.159.158h1.53a.14.14,0,0,0,.159-.158v-1.32A.14.14,0,0,0,655.53,55.109Z" transform="translate(217.618 18.366)"/><path class="a" d="M658.944,57.683v4.381a1.983,1.983,0,0,1-.422,1.478,1.78,1.78,0,0,1-1.425.475h-2.639a3.621,3.621,0,0,1,.159.422,1.14,1.14,0,0,1,.105.581,1.852,1.852,0,0,1-.686,1.531,2.531,2.531,0,0,1-1,.475,5.1,5.1,0,0,1-1.426.211h-3.641a4.344,4.344,0,0,1-3.062-.95,3.308,3.308,0,0,1-1-2.586,4.688,4.688,0,0,1,.105-.845,4.523,4.523,0,0,1,.212-.9l.316-.792a2.639,2.639,0,0,1,.423-.633c.052-.106.105-.106.212-.053l1.266.633a.159.159,0,0,1,0,.211,10.284,10.284,0,0,0-.476,1.056,3.028,3.028,0,0,0-.211,1.161,1.9,1.9,0,0,0,.211,1,1.546,1.546,0,0,0,.529.633,2.493,2.493,0,0,0,.79.317,2.776,2.776,0,0,0,.9.106h3.114a2.721,2.721,0,0,0,1.32-.211.751.751,0,0,0,.317-.633.854.854,0,0,0-.159-.475,1.286,1.286,0,0,0-.581-.422c-.264-.106-.581-.264-.95-.422-.421-.106-.9-.317-1.425-.475-.105-.053-.159-.106-.105-.211l.422-1.214c.052-.106.105-.158.211-.158.317.158.635.264.95.422.316.106.633.211.9.317a5.783,5.783,0,0,0,.9.264,4.639,4.639,0,0,0,.9.106h2.429a.85.85,0,0,0,.581-.158,1.2,1.2,0,0,0,.159-.686V57.683a.14.14,0,0,1,.159-.158h1.477A.14.14,0,0,1,658.944,57.683Z" transform="translate(214.309 19.17)"/><path class="a" d="M658.3,64.928c0,.1-.052.155-.16.155H656.67c-.108,0-.16-.052-.16-.155l-.005-10.371a.14.14,0,0,1,.16-.16h1.474a.14.14,0,0,1,.16.16Z" transform="translate(218.505 18.129)"/><path class="a" d="M671.871,63.385H670.34c-.105,0-.159.053-.159.211v1.32a.14.14,0,0,0,.159.158h1.531a.14.14,0,0,0,.159-.158V63.544A.14.14,0,0,0,671.871,63.385Z" transform="translate(223.058 21.121)"/><path class="a" d="M676.806,63.425h-1.32a.139.139,0,0,0-.157.158v1.373a.139.139,0,0,0,.157.158h1.32a.14.14,0,0,0,.159-.158V63.583A.14.14,0,0,0,676.806,63.425Zm-2.058,0h-1.32a.14.14,0,0,0-.159.158v1.373a.14.14,0,0,0,.159.158h1.32a.14.14,0,0,0,.159-.158V63.583A.14.14,0,0,0,674.748,63.425Z" transform="translate(224.086 21.134)"/><path class="a" d="M699.322,54.555v8.551a1.984,1.984,0,0,1-.423,1.478,1.78,1.78,0,0,1-1.425.475H696a5.872,5.872,0,0,1-1.056-.106,1.319,1.319,0,0,1-.74-.686,1.224,1.224,0,0,1-.633.633,3.062,3.062,0,0,1-1.108.159h-.685a1.811,1.811,0,0,1-.952-.211,1.043,1.043,0,0,1-.58-.581,1.156,1.156,0,0,1-.686.633,3.07,3.07,0,0,1-1.109.159h-.685a1.644,1.644,0,0,1-1.584-.792,1.232,1.232,0,0,1-.634.633,3.066,3.066,0,0,1-1.109.159h-2.11a3.16,3.16,0,0,1-.792-.106,1.177,1.177,0,0,1-.74-.686,1.154,1.154,0,0,1-.685.633,3.744,3.744,0,0,1-1.214.159h-1.478a5.871,5.871,0,0,1-1.056-.106,1.176,1.176,0,0,1-.738-.686,1.156,1.156,0,0,1-.686.633,3.4,3.4,0,0,1-1.162.159H663.713a4.3,4.3,0,0,1-.9-.053,1.368,1.368,0,0,1-.687-.422v.264a6.053,6.053,0,0,1-.157,1.478,1.929,1.929,0,0,1-.475,1.108,2.113,2.113,0,0,1-.845.633,4.6,4.6,0,0,1-1.32.211h-.581a.14.14,0,0,1-.159-.158V66.853a.14.14,0,0,1,.159-.158h.317a1.4,1.4,0,0,0,.738-.158,1.147,1.147,0,0,0,.371-.475c.052-.211.105-.422.159-.739v-6.6a.139.139,0,0,1,.157-.158h1.478a.139.139,0,0,1,.157.158v3.853a.769.769,0,0,0,.371.686,1.563,1.563,0,0,0,.95.264H673.3c.159,0,.317-.053.422-.053a.529.529,0,0,0,.211-.264,1.046,1.046,0,0,0,.105-.475V58.724a.14.14,0,0,1,.159-.158h1.478a.14.14,0,0,1,.159.158v3.8a.8.8,0,0,0,.369.738,1.563,1.563,0,0,0,.95.264h1.32a1,1,0,0,0,.423-.106.533.533,0,0,0,.211-.264,1.067,1.067,0,0,0,.105-.475V58.724c0-.053.053-.106.107-.158h1.53a.139.139,0,0,1,.157.158v3.8a.8.8,0,0,0,.37.738,1.563,1.563,0,0,0,.95.264h1.53a1.048,1.048,0,0,0,.475-.106,1.2,1.2,0,0,0,.212-.264,1.189,1.189,0,0,0,.052-.475V59.938a.14.14,0,0,1,.159-.158h1.478a.14.14,0,0,1,.159.158v2.586a.954.954,0,0,0,.264.738,1.338,1.338,0,0,0,.845.264,2.175,2.175,0,0,0,.633-.053.485.485,0,0,0,.316-.212.841.841,0,0,0,.159-.475v-2.85a.14.14,0,0,1,.159-.158h1.478a.14.14,0,0,1,.159.158v2.639a.887.887,0,0,0,.316.739,1.745,1.745,0,0,0,.792.211,1.644,1.644,0,0,0,.581-.053.858.858,0,0,0,.369-.212,2.445,2.445,0,0,0,.159-.475V58.724a.14.14,0,0,1,.159-.158h1.477a.14.14,0,0,1,.159.158v3.8a.8.8,0,0,0,.369.738,1.685,1.685,0,0,0,.952.264h1.054a.658.658,0,0,0,.581-.211.92.92,0,0,0,.157-.633V54.555a.14.14,0,0,1,.159-.158h1.478A.14.14,0,0,1,699.322,54.555Z" transform="translate(219.2 18.128)"/><path class="a" d="M692.449,64.924c0,.1-.052.155-.16.155h-1.474c-.108,0-.16-.052-.16-.155l-.005-10.371a.14.14,0,0,1,.16-.16h1.474a.14.14,0,0,1,.16.16Z" transform="translate(229.871 18.128)"/><path class="a" d="M560.043,77.79a3.951,3.951,0,0,1-.8-.079,4.475,4.475,0,0,1-.737-.21,3.821,3.821,0,0,1-.652-.318,3.112,3.112,0,0,1-.512-.395.117.117,0,0,1-.021-.166l.672-.8a.088.088,0,0,1,.149-.013,4.1,4.1,0,0,0,.395.289,3.215,3.215,0,0,0,.476.256,3.421,3.421,0,0,0,.533.182,2.381,2.381,0,0,0,.594.075,1.523,1.523,0,0,0,1.02-.308.979.979,0,0,0,.364-.784.859.859,0,0,0-.292-.671,2.057,2.057,0,0,0-1.05-.374l-.384-.054a3.016,3.016,0,0,1-1.645-.685,1.91,1.91,0,0,1-.569-1.473,2.491,2.491,0,0,1,.169-.935,2.035,2.035,0,0,1,.5-.722,2.2,2.2,0,0,1,.782-.461,3.116,3.116,0,0,1,1.032-.162,4.164,4.164,0,0,1,1.312.205,3.548,3.548,0,0,1,1.065.551.11.11,0,0,1,.021.156l-.518.823a.1.1,0,0,1-.153.033,3.922,3.922,0,0,0-.87-.446,2.775,2.775,0,0,0-.888-.143,1.2,1.2,0,0,0-.861.285.971.971,0,0,0-.3.727.831.831,0,0,0,.3.651,2.149,2.149,0,0,0,1.052.372l.389.056a2.956,2.956,0,0,1,1.629.684,1.966,1.966,0,0,1,.564,1.507,2.547,2.547,0,0,1-.175.935,2.014,2.014,0,0,1-.523.743,2.568,2.568,0,0,1-.87.489A3.628,3.628,0,0,1,560.043,77.79Z" transform="translate(185.48 23.317)"/><path class="a" d="M565.633,74.888l-.973-2.936h-.032l-.984,2.936Zm-1.609-4.7a.132.132,0,0,1,.139-.11h.993a.142.142,0,0,1,.144.11l2.48,7.34c.025.074,0,.11-.072.11h-1.061a.133.133,0,0,1-.139-.11l-.487-1.468-2.767,0-.481,1.468a.142.142,0,0,1-.144.11h-1.045c-.072,0-.1-.036-.077-.11Z" transform="translate(186.88 23.347)"/><path class="a" d="M569.118,76.579a1.384,1.384,0,0,0,1.041-.417,1.678,1.678,0,0,0,.4-1.207V70.184a.1.1,0,0,1,.107-.11h1.057c.072,0,.107.036.107.11v4.794a3.133,3.133,0,0,1-.205,1.173,2.457,2.457,0,0,1-.562.872,2.428,2.428,0,0,1-.861.545,3.027,3.027,0,0,1-1.082.189,2.981,2.981,0,0,1-1.07-.189,2.41,2.41,0,0,1-1.42-1.417,3.133,3.133,0,0,1-.205-1.173V70.184a.1.1,0,0,1,.108-.11h1.056a.1.1,0,0,1,.108.11v4.771a1.678,1.678,0,0,0,.4,1.207A1.363,1.363,0,0,0,569.118,76.579Z" transform="translate(188.518 23.347)"/><path class="a" d="M572.582,76.39c0,.044.02.067.061.067h1.092a1.911,1.911,0,0,0,.989-.223,1.238,1.238,0,0,0,.533-.733.912.912,0,0,0,.056-.2c.015-.079.025-.179.036-.3s.02-.277.031-.464.011-.415.011-.689-.005-.5-.011-.689-.021-.341-.031-.467a2.978,2.978,0,0,0-.036-.3.85.85,0,0,0-.056-.19,1.238,1.238,0,0,0-.533-.733,1.906,1.906,0,0,0-.989-.223h-1.092c-.041,0-.061.02-.061.067Zm-1.276-6.205c0-.074.035-.11.107-.11h2.623a2.3,2.3,0,0,1,2.455,1.676c.027.1.052.2.072.3s.041.241.061.4.031.346.036.572.011.5.011.827,0,.6-.011.83-.02.415-.036.572-.036.287-.061.395-.045.21-.072.308a2.306,2.306,0,0,1-2.455,1.68h-2.623c-.072,0-.107-.036-.107-.11Z" transform="translate(190.144 23.347)"/><path class="a" d="M576.015,70.182a.1.1,0,0,1,.108-.11h1.061c.07,0,.107.036.107.11v7.34c0,.074-.036.11-.107.11h-1.061a.1.1,0,0,1-.108-.11Z" transform="translate(191.711 23.347)"/><path class="a" d="M579.387,70.182a.1.1,0,0,1,.108-.11h4.6c.072,0,.107.036.107.11v.955c0,.075-.035.113-.107.113h-3.372c-.04,0-.061.02-.061.067v1.924c0,.043.021.067.061.067h2.844a.1.1,0,0,1,.108.11v.956a.1.1,0,0,1-.108.113h-2.844c-.04,0-.061.021-.061.067v2.97a.1.1,0,0,1-.108.11h-1.06a.1.1,0,0,1-.108-.11Z" transform="translate(192.834 23.347)"/><path class="a" d="M583.573,70.183a.1.1,0,0,1,.108-.11l4.6,0a.1.1,0,0,1,.108.11v.956a.1.1,0,0,1-.108.112l-3.371,0c-.041,0-.061.02-.061.067v1.845c0,.046.02.067.061.067l2.844,0c.071,0,.107.038.107.112V74.3c0,.075-.036.11-.107.11l-2.844,0c-.041,0-.061.023-.061.067v1.914c0,.044.02.067.061.067l3.371,0a.1.1,0,0,1,.108.11v.958a.1.1,0,0,1-.108.11l-4.6,0a.1.1,0,0,1-.108-.11Z" transform="translate(194.227 23.346)"/><path class="a" d="M589.113,76.386c0,.044.02.067.061.067h1.092a1.911,1.911,0,0,0,.989-.223,1.238,1.238,0,0,0,.533-.733.846.846,0,0,0,.056-.2,2.62,2.62,0,0,0,.036-.3c.011-.123.021-.277.031-.464s.011-.415.011-.689-.005-.5-.011-.689-.02-.341-.031-.467a2.359,2.359,0,0,0-.036-.3.79.79,0,0,0-.056-.19,1.238,1.238,0,0,0-.533-.733,1.906,1.906,0,0,0-.989-.223h-1.092c-.041,0-.061.02-.061.067Zm-1.276-6.205a.1.1,0,0,1,.108-.11h2.623a2.3,2.3,0,0,1,2.454,1.678c.027.1.052.2.072.3a3.845,3.845,0,0,1,.061.4c.016.154.032.346.036.571s.011.5.011.828,0,.6-.011.83-.02.415-.036.572a3.782,3.782,0,0,1-.061.395c-.02.108-.045.21-.072.308a2.3,2.3,0,0,1-2.454,1.678h-2.623a.1.1,0,0,1-.108-.11Z" transform="translate(195.646 23.346)"/><path class="a" d="M592.543,70.18c0-.074.035-.11.107-.11h4.6a.1.1,0,0,1,.108.11v.955c0,.075-.036.113-.108.113H593.88c-.041,0-.061.02-.061.067V73.16c0,.046.02.067.061.067h2.843a.1.1,0,0,1,.108.112V74.3a.1.1,0,0,1-.108.11H593.88c-.041,0-.061.023-.061.067v1.914c0,.044.02.067.061.067h3.371a.1.1,0,0,1,.108.11v.958a.1.1,0,0,1-.108.11h-4.6c-.072,0-.107-.036-.107-.11Z" transform="translate(197.213 23.346)"/><path class="a" d="M599.708,73.391a1.14,1.14,0,0,0,.814-.287,1.152,1.152,0,0,0,0-1.568,1.13,1.13,0,0,0-.814-.29l-1.567,0c-.041,0-.063.021-.063.067v2.012c0,.046.021.067.063.067Zm1.265,4.238a.163.163,0,0,1-.164-.11l-1.4-2.949-1.265,0c-.041,0-.063.023-.063.069v2.88c0,.074-.035.11-.107.11H596.91a.1.1,0,0,1-.108-.11v-7.34a.1.1,0,0,1,.108-.11l2.839,0a2.529,2.529,0,0,1,.937.167,2.279,2.279,0,0,1,.738.461,2.069,2.069,0,0,1,.492.712,2.335,2.335,0,0,1,.18.918,2.209,2.209,0,0,1-.38,1.289,2.112,2.112,0,0,1-1.014.789l1.542,3.082a.089.089,0,0,1,.005.1.092.092,0,0,1-.083.043Z" transform="translate(198.631 23.345)"/><path class="a" d="M605.127,74.882l-.973-2.936h-.032l-.984,2.936Zm-1.609-4.7a.132.132,0,0,1,.137-.11h.994a.142.142,0,0,1,.144.11l2.481,7.34c.025.074,0,.11-.072.11h-1.061a.132.132,0,0,1-.137-.11l-.488-1.468h-2.767l-.481,1.468a.142.142,0,0,1-.144.11h-1.045c-.072,0-.1-.036-.077-.11Z" transform="translate(200.027 23.345)"/><path class="a" d="M607.39,77.629a.1.1,0,0,1-.108-.11V71.313c0-.046-.02-.067-.061-.067h-1.927c-.071,0-.107-.038-.107-.112v-.956a.1.1,0,0,1,.107-.11h5.253a.1.1,0,0,1,.108.11v.956c0,.075-.036.112-.108.112h-1.922c-.047,0-.067.021-.067.067v6.205a.1.1,0,0,1-.108.11Z" transform="translate(201.422 23.345)"/><path class="a" d="M609.72,70.179c0-.074.035-.11.107-.11l1.061,0a.1.1,0,0,1,.108.11v7.34a.1.1,0,0,1-.108.11l-1.061,0c-.072,0-.107-.036-.107-.11Z" transform="translate(202.931 23.345)"/><path class="a" d="M614.16,76.6a1.388,1.388,0,0,0,.881-.261,1.431,1.431,0,0,0,.486-.73,1.789,1.789,0,0,0,.057-.233c.015-.087.025-.2.035-.333s.021-.295.027-.484.015-.415.015-.684,0-.495-.015-.684-.016-.349-.027-.482-.02-.246-.035-.335a1.89,1.89,0,0,0-.057-.234,1.433,1.433,0,0,0-.486-.727,1.614,1.614,0,0,0-1.762,0,1.5,1.5,0,0,0-.482.727,2.2,2.2,0,0,0-.056.234,2.305,2.305,0,0,0-.045.335c-.011.133-.016.295-.021.482s-.005.417-.005.684,0,.5.005.684.011.351.021.484a2.221,2.221,0,0,0,.045.333,2.071,2.071,0,0,0,.056.233,1.5,1.5,0,0,0,.482.73A1.378,1.378,0,0,0,614.16,76.6Zm0,1.178a2.847,2.847,0,0,1-1.634-.461,2.459,2.459,0,0,1-.958-1.363c-.036-.118-.067-.238-.093-.356a3.933,3.933,0,0,1-.061-.41c-.009-.156-.025-.341-.031-.551s-.009-.467-.009-.763,0-.549.009-.761.021-.395.031-.551a3.828,3.828,0,0,1,.061-.41c.027-.12.057-.238.093-.356a2.45,2.45,0,0,1,.958-1.363,3.135,3.135,0,0,1,3.273,0,2.482,2.482,0,0,1,.964,1.363c.036.118.061.236.087.356a3.482,3.482,0,0,1,.063.41c.015.156.025.341.031.551s.009.467.009.761,0,.551-.009.763-.016.395-.031.551a3.571,3.571,0,0,1-.063.41c-.025.118-.051.238-.087.356a2.492,2.492,0,0,1-.964,1.363A2.852,2.852,0,0,1,614.16,77.781Z" transform="translate(203.481 23.314)"/><path class="a" d="M616.255,70.177a.1.1,0,0,1,.108-.11h.994a.208.208,0,0,1,.184.11l2.992,5.216h.041V70.177a.1.1,0,0,1,.108-.11h.937a.1.1,0,0,1,.112.11v7.34a.1.1,0,0,1-.112.11h-.978a.2.2,0,0,1-.184-.11l-3-5.206h-.041v5.206c0,.074-.036.11-.113.11h-.937a.1.1,0,0,1-.108-.11Z" transform="translate(205.106 23.345)"/><path class="a" d="M622.779,70.175a.1.1,0,0,1,.108-.11h4.6a.1.1,0,0,1,.108.11v.955c0,.075-.036.113-.108.113h-3.371c-.041,0-.061.02-.061.067v1.924c0,.043.02.067.061.067h2.843a.1.1,0,0,1,.108.11v.956a.1.1,0,0,1-.108.112h-2.843c-.041,0-.061.021-.061.067v2.97a.1.1,0,0,1-.109.11h-1.06a.1.1,0,0,1-.108-.11Z" transform="translate(207.278 23.344)"/><path class="a" d="M629.591,76.6a1.392,1.392,0,0,0,.882-.261,1.432,1.432,0,0,0,.487-.73,1.8,1.8,0,0,0,.056-.233,3.2,3.2,0,0,0,.036-.333c.011-.133.021-.295.027-.484s.015-.415.015-.684-.005-.495-.015-.684-.016-.349-.027-.482a3.334,3.334,0,0,0-.036-.335,1.9,1.9,0,0,0-.056-.234,1.434,1.434,0,0,0-.487-.727,1.389,1.389,0,0,0-.882-.262,1.374,1.374,0,0,0-.88.262,1.49,1.49,0,0,0-.482.727,1.7,1.7,0,0,0-.056.234,2.292,2.292,0,0,0-.047.335c-.011.133-.015.295-.02.482s-.005.417-.005.684,0,.5.005.684.009.351.02.484a2.207,2.207,0,0,0,.047.333,1.614,1.614,0,0,0,.056.233,1.487,1.487,0,0,0,.482.73A1.377,1.377,0,0,0,629.591,76.6Zm0,1.178a2.849,2.849,0,0,1-1.634-.461A2.47,2.47,0,0,1,627,75.955c-.036-.118-.065-.238-.092-.356a3.966,3.966,0,0,1-.061-.41c-.011-.156-.025-.341-.031-.551s-.011-.467-.011-.763.005-.549.011-.761.02-.395.031-.551a3.859,3.859,0,0,1,.061-.41c.027-.12.056-.238.092-.356a2.464,2.464,0,0,1,.958-1.363,3.137,3.137,0,0,1,3.275,0A2.5,2.5,0,0,1,632.2,71.8c.035.118.061.236.087.356a3.555,3.555,0,0,1,.061.41c.015.156.025.341.031.551s.011.467.011.761,0,.551-.011.763-.016.395-.031.551a3.646,3.646,0,0,1-.061.41c-.025.118-.052.238-.087.356a2.5,2.5,0,0,1-.964,1.363A2.856,2.856,0,0,1,629.591,77.779Z" transform="translate(208.618 23.313)"/><path class="a" d="M634.6,73.385a1.145,1.145,0,0,0,.816-.287,1.156,1.156,0,0,0,0-1.568,1.135,1.135,0,0,0-.816-.29l-1.568,0c-.041,0-.061.02-.061.067v2.011c0,.046.02.067.061.067Zm1.266,4.238a.161.161,0,0,1-.164-.11l-1.4-2.949-1.266,0c-.041,0-.061.023-.061.069v2.88a.1.1,0,0,1-.108.11H631.8a.1.1,0,0,1-.108-.11v-7.34a.1.1,0,0,1,.108-.11l2.839,0a2.529,2.529,0,0,1,.937.166,2.281,2.281,0,0,1,.738.461,2.046,2.046,0,0,1,.492.712,2.31,2.31,0,0,1,.18.917,2.206,2.206,0,0,1-.379,1.289,2.117,2.117,0,0,1-1.016.789l1.542,3.083a.086.086,0,0,1,.005.1.088.088,0,0,1-.081.044Z" transform="translate(210.244 23.344)"/><path class="a" d="M637.936,75.92c-.035-.118-.067-.236-.092-.351a3.749,3.749,0,0,1-.061-.4c-.011-.151-.025-.331-.031-.533s-.011-.459-.011-.763.005-.548.011-.755.02-.387.031-.538a3.517,3.517,0,0,1,.061-.4c.025-.115.057-.234.092-.351a2.5,2.5,0,0,1,.944-1.4,2.748,2.748,0,0,1,1.6-.462,2.653,2.653,0,0,1,1.527.433,2.6,2.6,0,0,1,.958,1.191c.02.067.005.11-.056.133l-.918.456c-.061.036-.113.018-.137-.057a2.174,2.174,0,0,0-.5-.689,1.465,1.465,0,0,0-1.717-.023,1.55,1.55,0,0,0-.472.735c-.02.082-.041.162-.056.244a2.1,2.1,0,0,0-.047.317c-.009.128-.015.287-.02.472s-.005.415-.005.689,0,.515.005.7.011.336.02.467a2.246,2.246,0,0,0,.047.323c.015.084.036.164.056.238a1.548,1.548,0,0,0,.472.735,1.465,1.465,0,0,0,1.717-.023,2.166,2.166,0,0,0,.5-.689c.024-.075.076-.092.137-.057l.918.456c.061.023.076.067.056.133a2.58,2.58,0,0,1-.958,1.189,2.658,2.658,0,0,1-1.527.436,2.748,2.748,0,0,1-1.6-.461A2.505,2.505,0,0,1,637.936,75.92Z" transform="translate(212.259 23.313)"/><path class="a" d="M643.936,77.624c-.077,0-.113-.036-.113-.11V74.532L641.7,70.173c-.027-.074,0-.11.087-.11h1.092a.156.156,0,0,1,.153.11l1.434,2.937h.032l1.45-2.937a.146.146,0,0,1,.148-.11l1.046,0c.087,0,.117.036.087.11L645.1,74.532v2.982a.1.1,0,0,1-.109.11Z" transform="translate(213.572 23.343)"/><path class="a" d="M647.467,76.4c0,.044.02.067.061.067h1.537a1.11,1.11,0,0,0,.825-.289,1.049,1.049,0,0,0,.287-.768,1.035,1.035,0,0,0-.287-.756,1.108,1.108,0,0,0-.825-.29h-1.537c-.041,0-.061.023-.061.067ZM649,73.207a1.065,1.065,0,0,0,.769-.272.967.967,0,0,0,.277-.717.981.981,0,0,0-.277-.73,1.076,1.076,0,0,0-.769-.272h-1.47c-.041,0-.061.023-.061.067v1.858c0,.043.02.067.061.067Zm-2.807-3.036c0-.074.035-.11.106-.11h2.732a2.392,2.392,0,0,1,1.731.551,1.947,1.947,0,0,1,.558,1.46,1.854,1.854,0,0,1-.25,1.03,1.718,1.718,0,0,1-.6.572V73.7a1.26,1.26,0,0,1,.343.21,1.561,1.561,0,0,1,.313.361,2.054,2.054,0,0,1,.231.5,2.021,2.021,0,0,1,.092.628,2.047,2.047,0,0,1-.656,1.678,2.859,2.859,0,0,1-1.871.545H646.3c-.072,0-.106-.036-.106-.11Z" transform="translate(215.072 23.343)"/><path class="a" d="M650.755,70.171a.1.1,0,0,1,.108-.11h4.6a.1.1,0,0,1,.108.11v.955c0,.075-.036.113-.108.113h-3.372c-.04,0-.061.02-.061.067v1.845c0,.046.021.067.061.067h2.844a.1.1,0,0,1,.108.112v.956a.1.1,0,0,1-.108.11h-2.844c-.04,0-.061.023-.061.067v1.914c0,.044.021.067.061.067h3.372a.1.1,0,0,1,.108.11v.958a.1.1,0,0,1-.108.11h-4.6a.1.1,0,0,1-.108-.11Z" transform="translate(216.591 23.343)"/><path class="a" d="M657.921,73.382a1.143,1.143,0,0,0,.815-.287,1.155,1.155,0,0,0,0-1.567,1.132,1.132,0,0,0-.815-.29l-1.569,0c-.041,0-.061.021-.061.067v2.012c0,.046.02.067.061.067Zm1.265,4.238a.161.161,0,0,1-.164-.11l-1.4-2.949-1.266,0c-.041,0-.061.023-.061.069v2.88a.1.1,0,0,1-.108.11h-1.061c-.072,0-.107-.036-.107-.11v-7.34c0-.075.035-.11.107-.11l2.839,0a2.541,2.541,0,0,1,.938.167,2.283,2.283,0,0,1,.738.461,2.081,2.081,0,0,1,.492.712,2.335,2.335,0,0,1,.179.918,2.208,2.208,0,0,1-.379,1.289,2.121,2.121,0,0,1-1.016.789l1.542,3.082a.087.087,0,0,1,.005.1.088.088,0,0,1-.081.043Z" transform="translate(218.009 23.342)"/><path class="a" d="M662.094,77.773a3.95,3.95,0,0,1-.8-.079,4.47,4.47,0,0,1-.737-.21,3.82,3.82,0,0,1-.652-.318,3,3,0,0,1-.512-.395.115.115,0,0,1-.021-.166l.672-.8a.087.087,0,0,1,.149-.013,4.308,4.308,0,0,0,.395.289,3.216,3.216,0,0,0,.476.256,3.37,3.37,0,0,0,.533.182,2.342,2.342,0,0,0,.595.075,1.522,1.522,0,0,0,1.02-.308.978.978,0,0,0,.364-.784.86.86,0,0,0-.292-.672,2.063,2.063,0,0,0-1.05-.374l-.385-.054a3.029,3.029,0,0,1-1.645-.684,1.915,1.915,0,0,1-.568-1.473,2.512,2.512,0,0,1,.168-.935,2.052,2.052,0,0,1,.5-.723,2.187,2.187,0,0,1,.784-.461,3.08,3.08,0,0,1,1.029-.162,4.152,4.152,0,0,1,1.312.2,3.54,3.54,0,0,1,1.066.551.111.111,0,0,1,.021.156l-.519.823a.1.1,0,0,1-.153.033,3.922,3.922,0,0,0-.872-.446,2.777,2.777,0,0,0-.886-.143,1.2,1.2,0,0,0-.861.285.973.973,0,0,0-.3.727.832.832,0,0,0,.3.651,2.139,2.139,0,0,0,1.052.372l.389.057a2.951,2.951,0,0,1,1.629.683,1.967,1.967,0,0,1,.564,1.507,2.551,2.551,0,0,1-.175.936,2.013,2.013,0,0,1-.522.743,2.566,2.566,0,0,1-.872.489A3.613,3.613,0,0,1,662.094,77.773Z" transform="translate(219.451 23.312)"/><path class="a" d="M664.072,70.169a.1.1,0,0,1,.108-.11h4.6a.1.1,0,0,1,.108.11v.955c0,.075-.036.113-.108.113h-3.372c-.04,0-.061.02-.061.067v1.845c0,.046.021.067.061.067h2.844a.1.1,0,0,1,.108.112v.956a.1.1,0,0,1-.108.11h-2.844c-.04,0-.061.023-.061.067v1.914c0,.044.021.067.061.067h3.372a.1.1,0,0,1,.108.11v.958a.1.1,0,0,1-.108.11h-4.6a.1.1,0,0,1-.108-.11Z" transform="translate(221.024 23.342)"/><path class="a" d="M668.369,75.916c-.035-.118-.067-.236-.092-.351a3.423,3.423,0,0,1-.061-.4c-.011-.151-.025-.331-.031-.533s-.011-.459-.011-.763.005-.549.011-.756.02-.387.031-.538a3.223,3.223,0,0,1,.061-.4c.025-.115.057-.233.092-.351a2.509,2.509,0,0,1,.944-1.4,2.748,2.748,0,0,1,1.6-.461,2.657,2.657,0,0,1,1.528.433,2.6,2.6,0,0,1,.958,1.191c.02.067,0,.11-.057.133l-.917.456c-.061.036-.113.018-.137-.057a2.16,2.16,0,0,0-.5-.689,1.252,1.252,0,0,0-.87-.29,1.274,1.274,0,0,0-.846.267,1.557,1.557,0,0,0-.471.735c-.02.082-.041.162-.056.244a1.935,1.935,0,0,0-.047.318c-.011.128-.015.287-.02.471s-.005.415-.005.689,0,.515.005.7.009.335.02.466a2.049,2.049,0,0,0,.047.323c.015.085.036.164.056.238a1.557,1.557,0,0,0,.471.735,1.274,1.274,0,0,0,.846.267,1.252,1.252,0,0,0,.87-.29,2.16,2.16,0,0,0,.5-.689c.024-.075.076-.092.137-.057l.917.456c.061.023.077.067.057.133a2.586,2.586,0,0,1-.958,1.189,2.658,2.658,0,0,1-1.528.435,2.748,2.748,0,0,1-1.6-.461A2.5,2.5,0,0,1,668.369,75.916Z" transform="translate(222.389 23.311)"/><path class="a" d="M675.3,76.562a1.383,1.383,0,0,0,1.04-.417,1.677,1.677,0,0,0,.4-1.207V70.167a.1.1,0,0,1,.108-.11h1.056a.1.1,0,0,1,.108.11v4.794a3.139,3.139,0,0,1-.205,1.173,2.4,2.4,0,0,1-1.425,1.417,3.008,3.008,0,0,1-1.081.19,2.977,2.977,0,0,1-1.072-.19,2.414,2.414,0,0,1-1.418-1.417,3.139,3.139,0,0,1-.205-1.173V70.167a.1.1,0,0,1,.107-.11h1.057a.1.1,0,0,1,.107.11v4.771a1.677,1.677,0,0,0,.4,1.207A1.367,1.367,0,0,0,675.3,76.562Z" transform="translate(223.865 23.342)"/><path class="a" d="M680.395,73.38a1.13,1.13,0,0,0,.814-.289,1.152,1.152,0,0,0,0-1.568,1.14,1.14,0,0,0-.814-.287h-1.568c-.041,0-.063.02-.063.067v2.011c0,.046.021.067.063.067Zm1.266,4.235a.161.161,0,0,1-.164-.11l-1.4-2.947h-1.265c-.041,0-.063.023-.063.069v2.88c0,.074-.035.11-.107.11H677.6a.1.1,0,0,1-.108-.11v-7.34a.1.1,0,0,1,.108-.11h2.839a2.6,2.6,0,0,1,.938.164,2.277,2.277,0,0,1,.737.461,2.063,2.063,0,0,1,.492.712,2.33,2.33,0,0,1,.18.917,2.208,2.208,0,0,1-.38,1.289,2.113,2.113,0,0,1-1.014.79l1.542,3.082a.087.087,0,0,1,.005.1.089.089,0,0,1-.083.043Z" transform="translate(225.49 23.342)"/><path class="a" d="M682.149,70.165a.1.1,0,0,1,.107-.11h1.061a.1.1,0,0,1,.108.11v7.34a.1.1,0,0,1-.108.11h-1.061c-.071,0-.107-.036-.107-.11Z" transform="translate(227.042 23.341)"/><path class="a" d="M694.413,70.162l-2.151,4.355v2.99c0,.052,0,.105-.105.105h-1.049a.113.113,0,0,1-.105-.105v-2.99l-1.642-3.306h-2.4c-.052,0-.052.052-.052.105v6.192a.114.114,0,0,1-.1.105h-1.05c-.105,0-.157-.053-.157-.105V71.317c0-.053,0-.105-.053-.105h-1.887c-.105,0-.105,0-.105-.105v-.944c0-.053,0-.105.105-.105h6.4c.053,0,.105.052.159.105l1.417,2.938h.052l1.469-2.938a.112.112,0,0,1,.105-.105h1.05C694.413,70.057,694.465,70.11,694.413,70.162Z" transform="translate(227.508 23.342)"/><path class="a" d="M691.077,74.821a.1.1,0,0,1,.108-.11l1.014,0a.1.1,0,0,1,.108.11v1.212a.451.451,0,0,1-.011.133.2.2,0,0,1-.061.1l-.9.958a.212.212,0,0,1-.153.079c-.072,0-.108-.038-.108-.113Z" transform="translate(230.013 24.89)"/><path class="a" d="M560.123,84.172a1.238,1.238,0,0,0,.9-.317,1.281,1.281,0,0,0,0-1.706,1.22,1.22,0,0,0-.9-.325h-1.459c-.04,0-.061.021-.061.067V84.1c0,.046.021.067.061.067Zm-2.691,4.072a.1.1,0,0,1-.108-.111l-.005-7.384a.1.1,0,0,1,.108-.111H560.2a2.687,2.687,0,0,1,.978.173,2.27,2.27,0,0,1,.774.482,2.125,2.125,0,0,1,.5.742,2.673,2.673,0,0,1,0,1.935,2.171,2.171,0,0,1-.5.745,2.264,2.264,0,0,1-.774.479,2.687,2.687,0,0,1-.978.175h-1.537c-.04,0-.061.021-.061.067l.005,2.7a.1.1,0,0,1-.109.111Z" transform="translate(185.487 26.864)"/><path class="a" d="M565.033,83.981a1.163,1.163,0,0,0,.82-.291,1.16,1.16,0,0,0,0-1.577,1.127,1.127,0,0,0-.82-.289h-1.577c-.041,0-.063.021-.063.067v2.023c0,.046.021.067.063.067Zm1.278,4.26a.162.162,0,0,1-.165-.111l-1.417-2.964h-1.273c-.041,0-.063.023-.063.069l.005,2.9a.1.1,0,0,1-.108.111h-1.068a.1.1,0,0,1-.108-.111l-.005-7.384a.1.1,0,0,1,.109-.111l2.855,0a2.559,2.559,0,0,1,.944.167,2.292,2.292,0,0,1,.741.464,2.068,2.068,0,0,1,.5.717,2.336,2.336,0,0,1,.18.922,2.223,2.223,0,0,1-.381,1.3,2.13,2.13,0,0,1-1.021.794l1.557,3.1a.093.093,0,0,1,.005.1.091.091,0,0,1-.083.044Z" transform="translate(187.082 26.864)"/><path class="a" d="M569.723,87.211a1.372,1.372,0,0,0,.881-.263,1.439,1.439,0,0,0,.489-.735,1.785,1.785,0,0,0,.057-.235c.015-.087.025-.2.036-.335s.021-.3.025-.487.016-.417.016-.688-.005-.5-.016-.688-.015-.35-.025-.485-.021-.247-.036-.337a1.946,1.946,0,0,0-.057-.235,1.445,1.445,0,0,0-.489-.732,1.626,1.626,0,0,0-1.773,0,1.5,1.5,0,0,0-.485.732,2.194,2.194,0,0,0-.057.235,2.535,2.535,0,0,0-.045.337c-.011.134-.016.3-.021.485s0,.42,0,.688,0,.5,0,.688.011.353.021.487a2.429,2.429,0,0,0,.045.335,1.991,1.991,0,0,0,.057.235,1.492,1.492,0,0,0,.485.735A1.411,1.411,0,0,0,569.723,87.211Zm0,1.186a2.868,2.868,0,0,1-1.645-.464,2.518,2.518,0,0,1-.969-1.371c-.036-.118-.067-.239-.092-.358a3.631,3.631,0,0,1-.063-.413c-.011-.157-.025-.342-.031-.554s-.011-.469-.011-.768.005-.552.011-.766.02-.4.031-.554a3.557,3.557,0,0,1,.063-.413c.025-.121.056-.239.092-.358a2.47,2.47,0,0,1,.964-1.371,3.155,3.155,0,0,1,3.294,0,2.5,2.5,0,0,1,.969,1.371c.037.118.063.237.088.358a3.874,3.874,0,0,1,.063.413c.015.157.025.343.031.554s.011.469.011.766,0,.554-.011.768-.016.4-.031.554a3.961,3.961,0,0,1-.063.413c-.025.119-.051.24-.088.358a2.478,2.478,0,0,1-.964,1.371A2.872,2.872,0,0,1,569.723,88.4Z" transform="translate(188.681 26.833)"/><path class="a" d="M572.136,86.561c-.035-.119-.067-.24-.092-.358a3.622,3.622,0,0,1-.063-.413c-.011-.157-.025-.342-.031-.554s-.009-.469-.009-.768.005-.552.009-.766.02-.4.031-.554a3.515,3.515,0,0,1,.063-.413c.025-.121.057-.24.092-.358a2.473,2.473,0,0,1,.965-1.371,2.919,2.919,0,0,1,1.674-.464,3.064,3.064,0,0,1,.944.134,2.918,2.918,0,0,1,.753.353,2.175,2.175,0,0,1,.541.513,2.551,2.551,0,0,1,.335.611.113.113,0,0,1-.041.157l-.913.412a.1.1,0,0,1-.139-.054,2.027,2.027,0,0,0-.6-.7,1.543,1.543,0,0,0-.892-.24,1.423,1.423,0,0,0-.9.263,1.486,1.486,0,0,0-.49.732,2.226,2.226,0,0,0-.056.235,2.509,2.509,0,0,0-.047.337c-.011.134-.015.3-.02.485s-.005.42-.005.688,0,.5.005.688.009.353.02.487a2.4,2.4,0,0,0,.047.335,2.022,2.022,0,0,0,.056.235,1.482,1.482,0,0,0,.49.735,1.445,1.445,0,0,0,.906.263,1.536,1.536,0,0,0,.861-.242,1.266,1.266,0,0,0,.537-.709,3.23,3.23,0,0,0,.087-.42,4.327,4.327,0,0,0,.032-.565c0-.046-.021-.067-.068-.067H575c-.072,0-.107-.038-.107-.114V84.2c0-.075.035-.111.107-.111h2.444c.072,0,.108.034.108.108v.66a9.118,9.118,0,0,1-.041.922,4.286,4.286,0,0,1-.129.747,2.5,2.5,0,0,1-.958,1.381,2.768,2.768,0,0,1-1.645.487,2.929,2.929,0,0,1-1.675-.464A2.514,2.514,0,0,1,572.136,86.561Z" transform="translate(190.355 26.833)"/><path class="a" d="M580.053,83.977a1.149,1.149,0,0,0,.82-.289,1.16,1.16,0,0,0,0-1.577,1.141,1.141,0,0,0-.82-.291h-1.577c-.041,0-.063.021-.063.067V83.91c0,.046.021.067.063.067Zm1.278,4.263a.162.162,0,0,1-.165-.11l-1.417-2.966h-1.273c-.041,0-.063.023-.063.069l.005,2.9a.1.1,0,0,1-.108.11h-1.068a.1.1,0,0,1-.108-.11l0-7.384c0-.075.035-.111.108-.111h2.855a2.57,2.57,0,0,1,.944.167,2.282,2.282,0,0,1,.741.464,2.068,2.068,0,0,1,.5.716,2.337,2.337,0,0,1,.18.923,2.211,2.211,0,0,1-.381,1.3,2.131,2.131,0,0,1-1.021.794l1.557,3.1a.087.087,0,0,1,.005.1.091.091,0,0,1-.083.044Z" transform="translate(192.083 26.863)"/><path class="a" d="M585.782,85.477l-.98-2.954h-.031l-.989,2.954Zm-1.618-4.732a.133.133,0,0,1,.139-.111h1a.142.142,0,0,1,.144.111l2.5,7.384c.025.075,0,.11-.072.11h-1.066a.133.133,0,0,1-.14-.11l-.494-1.477h-2.783l-.48,1.477a.143.143,0,0,1-.144.11h-1.052c-.073,0-.1-.036-.077-.11Z" transform="translate(193.58 26.863)"/><path class="a" d="M587.042,80.746a.1.1,0,0,1,.108-.111h.969a.175.175,0,0,1,.185.108l2.031,4.688h.041l2-4.688a.17.17,0,0,1,.184-.11h.954a.1.1,0,0,1,.109.11l0,7.384a.1.1,0,0,1-.108.11h-.944a.1.1,0,0,1-.108-.11l-.005-4.655h-.047l-1.562,3.58a.2.2,0,0,1-.2.145h-.634a.226.226,0,0,1-.211-.145l-1.562-3.58h-.041l.005,4.655a.1.1,0,0,1-.113.113h-.944a.1.1,0,0,1-.108-.11Z" transform="translate(195.382 26.862)"/><path class="a" d="M593.121,80.743a.1.1,0,0,1,.108-.111h.969a.182.182,0,0,1,.187.111l2.03,4.688h.041l2-4.688a.171.171,0,0,1,.185-.111h.953a.1.1,0,0,1,.108.111l.005,7.384a.1.1,0,0,1-.108.11h-.942a.1.1,0,0,1-.109-.11l-.005-4.655H598.5l-1.562,3.58a.207.207,0,0,1-.2.144H596.1a.229.229,0,0,1-.212-.144l-1.561-3.58h-.041l.005,4.655c0,.075-.036.11-.113.11h-.944a.1.1,0,0,1-.108-.11Z" transform="translate(197.405 26.862)"/><path class="a" d="M599.2,80.744a.1.1,0,0,1,.109-.111l1.066,0a.1.1,0,0,1,.108.11l.005,7.384a.1.1,0,0,1-.108.11l-1.066,0a.1.1,0,0,1-.109-.11Z" transform="translate(199.429 26.862)"/><path class="a" d="M601.3,80.741a.1.1,0,0,1,.108-.111h1a.21.21,0,0,1,.185.111l3.01,5.247h.041V80.741a.1.1,0,0,1,.109-.111h.942a.1.1,0,0,1,.113.111l.005,7.384a.1.1,0,0,1-.113.11h-.985a.2.2,0,0,1-.185-.11l-3.026-5.237h-.041l.005,5.237c0,.075-.036.11-.113.11h-.944a.1.1,0,0,1-.108-.11Z" transform="translate(200.13 26.862)"/><path class="a" d="M606.609,86.556c-.036-.119-.068-.24-.093-.358a3.705,3.705,0,0,1-.061-.412c-.011-.157-.027-.343-.032-.554s-.009-.469-.009-.768.005-.552.009-.766.021-.4.032-.554a3.623,3.623,0,0,1,.061-.413c.025-.121.057-.239.093-.358A2.473,2.473,0,0,1,607.573,81a2.918,2.918,0,0,1,1.674-.464,3.08,3.08,0,0,1,.944.134,2.894,2.894,0,0,1,.753.353,2.154,2.154,0,0,1,.541.513,2.558,2.558,0,0,1,.334.611.112.112,0,0,1-.041.157l-.912.412a.1.1,0,0,1-.139-.054,2.032,2.032,0,0,0-.6-.7,1.541,1.541,0,0,0-.892-.24,1.426,1.426,0,0,0-.9.263,1.477,1.477,0,0,0-.489.732,1.936,1.936,0,0,0-.057.235,2.337,2.337,0,0,0-.045.337c-.011.134-.016.3-.021.485s-.005.42-.005.688,0,.5.005.688.011.353.021.487a2.244,2.244,0,0,0,.045.335,1.776,1.776,0,0,0,.057.235,1.473,1.473,0,0,0,.489.735,1.445,1.445,0,0,0,.906.263,1.544,1.544,0,0,0,.862-.242,1.271,1.271,0,0,0,.536-.709,3.484,3.484,0,0,0,.088-.421,4.611,4.611,0,0,0,.031-.564c0-.046-.021-.067-.068-.067h-1.216c-.073,0-.108-.038-.108-.113v-.895c0-.075.035-.111.108-.111h2.443a.1.1,0,0,1,.108.111v.66a8.759,8.759,0,0,1-.041.922,4.33,4.33,0,0,1-.128.745,2.51,2.51,0,0,1-.96,1.381,2.768,2.768,0,0,1-1.645.487,2.922,2.922,0,0,1-1.674-.464A2.517,2.517,0,0,1,606.609,86.556Z" transform="translate(201.83 26.831)"/><path class="a" d="M615.639,83.342a4.535,4.535,0,0,0,.422-.358,2.006,2.006,0,0,0,.243-.278.779.779,0,0,0,.119-.235.846.846,0,0,0,.031-.235.648.648,0,0,0-.191-.477.673.673,0,0,0-.489-.2.691.691,0,0,0-.511.2.648.648,0,0,0-.2.487.738.738,0,0,0,.021.191.853.853,0,0,0,.083.206,2.663,2.663,0,0,0,.169.286C615.417,83.041,615.52,83.18,615.639,83.342Zm-1.16,2.943a1.015,1.015,0,0,0,.268.737.986.986,0,0,0,.748.281,1.16,1.16,0,0,0,.572-.152,3.055,3.055,0,0,0,.629-.554l-1.3-1.722a2.842,2.842,0,0,0-.722.76A1.307,1.307,0,0,0,614.479,86.285Zm-1.129.067a2.324,2.324,0,0,1,.309-1.152,4.314,4.314,0,0,1,1.093-1.175c-.155-.2-.283-.379-.386-.531a3.192,3.192,0,0,1-.257-.43,1.849,1.849,0,0,1-.14-.387,1.64,1.64,0,0,1-.045-.4,1.721,1.721,0,0,1,.144-.7,1.621,1.621,0,0,1,.392-.554,1.7,1.7,0,0,1,.588-.363,1.968,1.968,0,0,1,.716-.129,1.916,1.916,0,0,1,.737.139,1.784,1.784,0,0,1,.572.376,1.708,1.708,0,0,1,.49,1.2,1.849,1.849,0,0,1-.063.487,1.827,1.827,0,0,1-.216.459,3.4,3.4,0,0,1-.4.475,6.889,6.889,0,0,1-.6.526l1.149,1.521.737-.9a.1.1,0,0,1,.155-.01l.6.526a.1.1,0,0,1,.02.155l-.866,1.085.259.337a.594.594,0,0,0,.211.188.5.5,0,0,0,.237.057h.165a.1.1,0,0,1,.108.111v.9a.1.1,0,0,1-.108.111h-.356a1.846,1.846,0,0,1-.329-.028.785.785,0,0,1-.259-.1,1.251,1.251,0,0,1-.243-.178,2.555,2.555,0,0,1-.247-.291l-.185-.235a3.253,3.253,0,0,1-.913.727,2.214,2.214,0,0,1-1.01.224,2.469,2.469,0,0,1-.9-.152,1.7,1.7,0,0,1-.638-.425,1.835,1.835,0,0,1-.387-.647A2.3,2.3,0,0,1,613.35,86.353Z" transform="translate(204.139 26.83)"/><path class="a" d="M621.754,86.981c0,.044.02.067.061.067h1.1a1.921,1.921,0,0,0,.994-.224,1.249,1.249,0,0,0,.537-.739.905.905,0,0,0,.056-.2,3.03,3.03,0,0,0,.036-.3c.011-.124.02-.278.031-.466s.011-.417.011-.694-.005-.5-.011-.693-.02-.343-.031-.469a2.665,2.665,0,0,0-.036-.3.857.857,0,0,0-.056-.191,1.236,1.236,0,0,0-.537-.734,1.915,1.915,0,0,0-.994-.224h-1.1c-.041,0-.061.021-.061.067Zm-1.284-6.242a.1.1,0,0,1,.108-.111h2.639a2.317,2.317,0,0,1,2.47,1.686c.025.1.051.2.072.307s.04.242.061.4.031.348.036.575.011.505.011.832,0,.606-.011.835-.02.417-.036.575-.036.288-.061.4-.047.212-.072.309a2.315,2.315,0,0,1-2.465,1.691h-2.639a.1.1,0,0,1-.108-.111Z" transform="translate(206.51 26.861)"/><path class="a" d="M628.4,83.969a1.145,1.145,0,0,0,.82-.289,1.16,1.16,0,0,0,0-1.577,1.137,1.137,0,0,0-.82-.291h-1.577c-.041,0-.061.021-.061.067V83.9c0,.046.02.067.061.067Zm1.278,4.263a.161.161,0,0,1-.164-.111L628.1,85.155h-1.273c-.041,0-.061.023-.061.069l.005,2.9a.1.1,0,0,1-.109.111H625.6a.1.1,0,0,1-.109-.111l0-7.384a.1.1,0,0,1,.108-.111h2.855a2.559,2.559,0,0,1,.944.167,2.289,2.289,0,0,1,.742.464,2.059,2.059,0,0,1,.495.717,2.336,2.336,0,0,1,.181.922,2.212,2.212,0,0,1-.383,1.3,2.123,2.123,0,0,1-1.02.794l1.557,3.1a.091.091,0,0,1-.079.144Z" transform="translate(208.178 26.86)"/><path class="a" d="M633.093,87.2a1.37,1.37,0,0,0,.881-.263,1.432,1.432,0,0,0,.491-.735,2.111,2.111,0,0,0,.057-.235c.015-.087.025-.2.036-.335s.02-.3.025-.487.015-.417.015-.688-.005-.5-.015-.688-.015-.35-.025-.485-.021-.247-.036-.337a2.2,2.2,0,0,0-.057-.235,1.436,1.436,0,0,0-.491-.732,1.626,1.626,0,0,0-1.773,0,1.5,1.5,0,0,0-.484.732,2.147,2.147,0,0,0-.057.235,2.322,2.322,0,0,0-.045.337c-.011.134-.016.3-.021.485s-.005.42-.005.688,0,.5.005.688.011.353.021.487a2.23,2.23,0,0,0,.045.335,2.06,2.06,0,0,0,.057.235,1.5,1.5,0,0,0,.484.735A1.414,1.414,0,0,0,633.093,87.2Zm0,1.186a2.867,2.867,0,0,1-1.644-.464,2.512,2.512,0,0,1-.969-1.371c-.036-.118-.068-.24-.093-.358a3.668,3.668,0,0,1-.061-.413c-.011-.157-.025-.343-.031-.554s-.011-.469-.011-.768.005-.551.011-.765.02-.4.031-.554a3.6,3.6,0,0,1,.061-.413c.025-.121.057-.239.093-.358A2.472,2.472,0,0,1,631.445,81a3.155,3.155,0,0,1,3.293,0,2.5,2.5,0,0,1,.969,1.371c.036.119.063.237.088.358a3.884,3.884,0,0,1,.061.413c.016.157.025.342.031.554s.011.469.011.765,0,.554-.011.768-.015.4-.031.554a3.968,3.968,0,0,1-.061.413c-.025.118-.052.24-.088.358a2.484,2.484,0,0,1-.964,1.371A2.876,2.876,0,0,1,633.093,88.387Z" transform="translate(209.777 26.829)"/><path class="a" d="M635.475,80.736c0-.075.035-.111.108-.111h1a.208.208,0,0,1,.185.111l3.01,5.247h.041V80.736a.1.1,0,0,1,.109-.111h.942a.1.1,0,0,1,.115.111l.005,7.384a.1.1,0,0,1-.115.111h-.984a.2.2,0,0,1-.187-.111l-3.026-5.237h-.04l0,5.237c0,.075-.036.111-.113.111h-.942c-.073,0-.108-.036-.108-.111Z" transform="translate(211.504 26.86)"/><path class="a" d="M640.749,80.736a.1.1,0,0,1,.108-.111h4.629c.073,0,.108.036.108.111V81.7c0,.075-.035.114-.108.114h-3.392c-.04,0-.061.02-.061.067v1.856c0,.046.021.067.061.067h2.862c.072,0,.108.038.108.113v.961a.1.1,0,0,1-.108.111h-2.862c-.04,0-.061.023-.061.067v1.925c0,.044.021.067.061.067h3.392a.1.1,0,0,1,.113.111v.964a.1.1,0,0,1-.108.111h-4.629a.1.1,0,0,1-.108-.111Z" transform="translate(213.26 26.86)"/><path class="a" d="M647.751,88.383a3.782,3.782,0,0,1-.8-.077,4.472,4.472,0,0,1-.741-.212,3.826,3.826,0,0,1-.656-.319,3.112,3.112,0,0,1-.515-.4.116.116,0,0,1-.021-.167l.67-.8a.087.087,0,0,1,.149-.013,4.17,4.17,0,0,0,.4.291,3.3,3.3,0,0,0,1.021.441,2.361,2.361,0,0,0,.6.072,1.51,1.51,0,0,0,1.021-.309.983.983,0,0,0,.365-.789.862.862,0,0,0-.293-.675,2.069,2.069,0,0,0-1.057-.376L647.5,85a3.038,3.038,0,0,1-1.654-.688,1.92,1.92,0,0,1-.572-1.482,2.518,2.518,0,0,1,.169-.941,2.075,2.075,0,0,1,.5-.727,2.228,2.228,0,0,1,.789-.464,3.189,3.189,0,0,1,1.036-.165,4.172,4.172,0,0,1,1.32.206,3.575,3.575,0,0,1,1.073.554.112.112,0,0,1,.02.157l-.521.827a.1.1,0,0,1-.155.034,3.92,3.92,0,0,0-.876-.448,2.786,2.786,0,0,0-.892-.144,1.225,1.225,0,0,0-.866.288.978.978,0,0,0-.3.732.836.836,0,0,0,.3.655,2.14,2.14,0,0,0,1.057.371l.392.057a2.969,2.969,0,0,1,1.638.688,1.977,1.977,0,0,1,.568,1.516,2.575,2.575,0,0,1-.175.94,1.959,1.959,0,0,1-.521.747,2.581,2.581,0,0,1-.876.493A3.654,3.654,0,0,1,647.751,88.383Z" transform="translate(214.671 26.828)"/><g transform="translate(682.503 111.221)"><path class="a" d="M531.336,87.158a.4.4,0,0,1-.132.781,4.827,4.827,0,0,1-.586-.037l-10.85-1.34a.4.4,0,0,0-.335.115l-1.459,1.462a.4.4,0,0,1-.505.054c-.52-.341-1.038-.7-1.549-1.064a40.63,40.63,0,0,1-3.711-3,.4.4,0,0,1,.444-.658,21.694,21.694,0,0,0,5.414,1.512h0c3.376.557,6.987.709,10.093,1.331A24.757,24.757,0,0,1,531.336,87.158Z" transform="translate(-512.076 -83.428)"/></g><path class="a" d="M535.951,84.089a.585.585,0,0,1-.605.966l-.035-.012a15.966,15.966,0,0,0-2.223-.536c-1.176-.205-2.539-.353-4.167-.5-7.12-.623-13.419-.555-19.62-2.707l-.036-.012a10.109,10.109,0,0,1-5.18-4.115l-.211-.33h0c-.972-1.515-1.974-3.082-2.988-4.665a.585.585,0,0,1,.654-.878q.808.229,1.634.431c4.415,1.082,9.233,1.683,13.99,2.844,7.909,1.933,13.329,4.79,17.134,8q.868.73,1.626,1.485Z" transform="translate(166.67 23.749)"/><g transform="translate(650.413 66.805)"><path class="a" d="M548.112,84.786a.393.393,0,0,1-.574.518,21.036,21.036,0,0,0-6.242-3.193c-10.1-3.434-27.077-5.006-40.237-13.287A34,34,0,0,1,497.069,66a12.816,12.816,0,0,1-1.348-1.49,83.086,83.086,0,0,1-6.952-10.848,6.854,6.854,0,0,1-.749-3.215.391.391,0,0,1,.657-.236q.746.7,1.526,1.345c8.645,7.157,20.628,9.754,34.194,15.693C539.728,73.965,544.145,78.516,548.112,84.786Z" transform="translate(-488 -50.105)"/></g><path class="a" d="M548.859,79.294a.374.374,0,0,1-.629.394c-2.426-2.969-5.571-5.166-10.025-7.547-16.367-8.747-34.307-10.7-47.469-24.54q-.244-.256-.485-.518a1.355,1.355,0,0,1,.365-2.123,4.745,4.745,0,0,1,2.161-.518h.125l1.959.052a7.82,7.82,0,0,0,3.187-.588.375.375,0,0,0,.164-.562l-.592-.839a4.769,4.769,0,0,1-.521-.963,1.2,1.2,0,0,1,1.785-1.444c.023.015.045.031.068.045,12.933,8.691,27.6,14.88,39.4,25.332A40.75,40.75,0,0,1,548.859,79.294Z" transform="translate(163.041 13.299)"/><path class="a" d="M561.936,92.935l-13.545,3.422a1.361,1.361,0,0,1-1.606-1.8l.012-.031c.724-1.9,1.589-3.879,2.491-5.963,3.6-8.308-.132-13.778-4.992-18.978C532.72,57.2,515.245,48.24,500.9,37.941a1.375,1.375,0,0,1,.352-2.416l3.308-1.147a4.771,4.771,0,0,1,4.124.484l19.269,12.276a1.366,1.366,0,0,0,.571.2l8.34.989a4.763,4.763,0,0,1,3.315,1.96l15.589,20.988a1.369,1.369,0,0,0,.977.545l8.632.749c.068.006.135.013.2.022a1.364,1.364,0,0,1,1.062.808,18.777,18.777,0,0,1,1.622,6.652c.252,4.958-2.162,9.372-5.766,12.583A1.336,1.336,0,0,1,561.936,92.935Z" transform="translate(166.517 11.377)"/></g></svg>