<svg xmlns="http://www.w3.org/2000/svg" xmlns:xlink="http://www.w3.org/1999/xlink" viewBox="0 0 457.42 167.38"><defs><style>.cls-1{fill:#3a73ff;}.cls-2{fill:url(#linear-gradient);}.cls-3{fill:#fff;}</style><linearGradient id="linear-gradient" x1="-120.22" y1="1992.08" x2="7.17" y2="1992.08" gradientTransform="matrix(0.7, 0.71, -0.71, 0.7, 1856.88, -1295.28)" gradientUnits="userSpaceOnUse"><stop offset="0" stop-color="#46f2d2"/><stop offset="1" stop-color="#3a73ff"/></linearGradient></defs><g id="Layer_2" data-name="Layer 2"><g id="Layer_1-2" data-name="Layer 1"><path class="cls-1" d="M412.66,90.74h0a4.1,4.1,0,0,1,0,5.8l-17.43,17.4a4.11,4.11,0,0,1-5.81,0h0a4.1,4.1,0,0,1,0-5.8l17.44-17.4A4.1,4.1,0,0,1,412.66,90.74Zm-32,26.09h0a4.1,4.1,0,0,0,0,5.8h0a4.11,4.11,0,0,0,5.81,0h0a4.12,4.12,0,0,0,0-5.81h0A4.1,4.1,0,0,0,380.7,116.83Zm34.83-17.36-8.67,8.66a4.1,4.1,0,0,0,0,5.8h0a4.11,4.11,0,0,0,5.81,0l8.67-8.65a4.12,4.12,0,0,0,0-5.81h0A4.12,4.12,0,0,0,415.53,99.47Zm-26.18,26.12-8.67,8.65a4.11,4.11,0,0,0,0,5.81h0a4.1,4.1,0,0,0,5.8,0l8.68-8.65a4.11,4.11,0,0,0,0-5.81h0A4.1,4.1,0,0,0,389.35,125.59Zm.07,17.33-8.67,8.65a4.11,4.11,0,0,0,0,5.81h0a4.12,4.12,0,0,0,5.81,0l8.67-8.65a4.1,4.1,0,0,0,0-5.8h0A4.11,4.11,0,0,0,389.42,142.92Zm34.81-34.73-17.42,17.38a4.1,4.1,0,0,0,0,5.8h0a4.1,4.1,0,0,0,5.8,0L430,114a4.11,4.11,0,0,0,0-5.81h0A4.1,4.1,0,0,0,424.23,108.19Zm-26.14,26.07h0a4.12,4.12,0,0,0,0,5.81h0a4.1,4.1,0,0,0,5.8,0h0a4.11,4.11,0,0,0,0-5.81h0A4.12,4.12,0,0,0,398.09,134.26Zm-26.15,26.1h0a4.11,4.11,0,0,0,0,5.81h0a4.1,4.1,0,0,0,5.8,0h0a4.1,4.1,0,0,0,0-5.8h0A4.1,4.1,0,0,0,371.94,160.36Zm.08-34.88-8.67,8.65a4.12,4.12,0,0,0,0,5.81h0a4.11,4.11,0,0,0,5.81,0l8.67-8.65a4.1,4.1,0,0,0,0-5.8h0A4.11,4.11,0,0,0,372,125.48Zm-17.48,17.44h0a4.11,4.11,0,0,0,0,5.81h0a4.11,4.11,0,0,0,5.81,0h0a4.1,4.1,0,0,0,0-5.8h0A4.1,4.1,0,0,0,354.54,142.92Zm43.57-26.07h0a4.1,4.1,0,0,0,0,5.8h0a4.1,4.1,0,0,0,5.8,0h0a4.11,4.11,0,0,0,0-5.81h0A4.12,4.12,0,0,0,398.11,116.85ZM372,142.93h0a4.11,4.11,0,0,0,0,5.81h0a4.11,4.11,0,0,0,5.81,0h0a4.1,4.1,0,0,0,0-5.8h0A4.1,4.1,0,0,0,372,142.93Zm61-26-17.42,17.38a4.1,4.1,0,0,0,0,5.8h0a4.11,4.11,0,0,0,5.81,0l17.42-17.37a4.12,4.12,0,0,0,0-5.81h0A4.1,4.1,0,0,0,432.93,116.91ZM406.74,143l-8.67,8.65a4.11,4.11,0,0,0,0,5.81h0a4.1,4.1,0,0,0,5.8,0l8.67-8.66a4.1,4.1,0,0,0,0-5.8h0A4.11,4.11,0,0,0,406.74,143Zm-17.38,17.34h0a4.12,4.12,0,0,0,0,5.81h0a4.1,4.1,0,0,0,5.8,0h0a4.1,4.1,0,0,0,0-5.8h0A4.11,4.11,0,0,0,389.36,160.37Z"/><path class="cls-2" d="M446.32,115.22l-22.86,22.67c8.52-8.67,7.92-23.2-1.35-32.56l-70-70.54a4,4,0,0,1,0-5.62l28.26-28a4,4,0,0,1,5.62,0l60.52,61.06A37.48,37.48,0,0,1,446.32,115.22Z"/><path class="cls-3" d="M0,51.12C0,35.7,11.6,25.3,26.65,25.3c10.92,0,17.29,5.91,20.81,12.2L38.32,42a13.49,13.49,0,0,0-11.67-7.26c-9.14,0-15.72,7-15.72,16.39s6.58,16.39,15.72,16.39a13.47,13.47,0,0,0,11.67-7.26l9.14,4.42C43.94,70.88,37.57,77,26.65,77,11.6,77,0,66.47,0,51.12Z"/><path class="cls-3" d="M50.67,57.93C50.67,47.68,57.86,39,69.76,39s19.16,8.68,19.16,18.93S81.74,77,69.76,77,50.67,68.19,50.67,57.93Zm28.37,0c0-5.61-3.29-10.48-9.28-10.48s-9.21,4.87-9.21,10.48,3.3,10.56,9.21,10.56S79,63.62,79,57.93Z"/><path class="cls-3" d="M120.28,76.05V71.41A13.92,13.92,0,0,1,109.13,77c-9.06,0-16-6.89-16-19,0-11.75,6.81-18.93,16-18.93a13.68,13.68,0,0,1,11.15,5.54V26.12h9.58V76.05Zm0-11.68V51.57a10.32,10.32,0,0,0-8.16-4.12c-5.46,0-9.2,4.27-9.2,10.48s3.74,10.56,9.2,10.56A10.29,10.29,0,0,0,120.28,64.37Z"/><path class="cls-3" d="M136.38,57.93c0-10.48,7.78-18.93,18.71-18.93s18.11,8.08,18.11,19.83v2.25H146.33c.68,4.41,4.27,8.08,10.41,8.08,3.06,0,7.26-1.27,9.58-3.52l4.26,6.29c-3.59,3.29-9.28,5-14.89,5C144.69,77,136.38,69.54,136.38,57.93Zm18.71-11.15c-5.91,0-8.46,4.12-8.83,7.71h17.81C163.77,51.05,161.38,46.78,155.09,46.78Z"/><path class="cls-3" d="M179.49,76.05V39.89H189v4.87c2.62-3.14,7-5.76,11.52-5.76v9.28a12,12,0,0,0-2.62-.23c-3.14,0-7.33,1.8-8.9,4.12V76.05Z"/><path class="cls-3" d="M240.27,76.05V55H216.69v21H206.06V26.12h10.63V45.73h23.58V26.12H251V76.05Z"/><path class="cls-3" d="M284.35,76.05V71.48A17.17,17.17,0,0,1,271.63,77C263.69,77,260,72.6,260,65.57V39.89h9.51V61.83c0,5,2.62,6.66,6.66,6.66a10.61,10.61,0,0,0,8.23-4.12V39.89h9.51V76.05Z"/><path class="cls-3" d="M302.69,76.05V26.12h9.51V44.54A13.68,13.68,0,0,1,323.35,39c9.21,0,16,7.18,16,18.93,0,12.13-6.89,19-16,19a14,14,0,0,1-11.15-5.54v4.64Zm17.74-7.56c5.46,0,9.13-4.27,9.13-10.56s-3.67-10.48-9.13-10.48a10.62,10.62,0,0,0-8.23,4.2v12.8A10.72,10.72,0,0,0,320.43,68.49Z"/><path class="cls-3" d="M69.34,100.37a2.27,2.27,0,0,0,.94-.2l19.93-8.79a2.34,2.34,0,1,0-1.89-4.29L68.39,95.88a2.34,2.34,0,0,0,1,4.49Z"/><path class="cls-3" d="M114.46,89.73c-11,0-17.58,6.11-17.58,16.34v.07c-8,1.8-13.31,8.58-13.31,17,0,.43,0,.89.05,1.36H63.81c-2.65,0-3.71-.52-4.13-1a4.77,4.77,0,0,1-.93-3.32V104.59H48.41V121c0,2-.45,2.67-.72,2.88a4.94,4.94,0,0,1-3,.62H17.84c-1.76,0-3-.05-3.9-.14a6,6,0,0,1-2.25-.57,2.12,2.12,0,0,1-1-1,5.18,5.18,0,0,1-.3-2v-11H0V122.1a16.84,16.84,0,0,0,.74,5.33,7.81,7.81,0,0,0,2.59,3.73,11.22,11.22,0,0,0,4.76,2.05,35,35,0,0,0,7.12.61h31c.95,0,1.92,0,2.89-.1a15.14,15.14,0,0,0,2.9-.48,9.39,9.39,0,0,0,2.68-1.16,7.58,7.58,0,0,0,1.64-1.42,6.28,6.28,0,0,0,3.18,2.47c1.35.44,60.07.66,71.92.69h.27l7.36-8.48V109.58C139.08,99.94,126.43,89.73,114.46,89.73ZM91.92,123.18c0-4.54,2.16-8.1,5.77-9.51a10.09,10.09,0,0,1,7.71.22c3.28,1.55,5.23,5,5.23,9.29a12.44,12.44,0,0,1-.07,1.37H92C92,124.1,91.92,123.64,91.92,123.18Zm14.32-16.91c0-5.24,3-8.25,8.22-8.25,5.41,0,15.32,6.93,15.32,11.79v14.74H118.92c0-.47,0-.93,0-1.37C119,114.85,114,108.27,106.24,106.27Z"/><path class="cls-3" d="M29.4,139.49a5.65,5.65,0,1,0,3.94,1.66A5.4,5.4,0,0,0,29.4,139.49Z"/><path class="cls-3" d="M338.64,118a14.94,14.94,0,0,0-.92-2.43c-.2-.42-.42-.84-.66-1.27l-.21-.37a11.57,11.57,0,0,0-1.3-1.7,12.66,12.66,0,0,0-5.43-3.35,27.85,27.85,0,0,0-8.17-1.18H261.43l20.73-8.57V88.34l-9.16,4-13.26,5.85-2.36,1a9.81,9.81,0,0,0-4.93,5.41,18.87,18.87,0,0,0-1.14,6.19c0,.06-.11,6.42.24,6.8l.17.18h68.52a34.52,34.52,0,0,1,4.4.24,6.34,6.34,0,0,1,2.85,1,4.13,4.13,0,0,1,1.57,2.22c.07.21.13.43.18.62v.16c0,1.3-.57,1.7-1,1.89a6.31,6.31,0,0,1-2.57.55H225.93v-1.46a36.11,36.11,0,0,0-.72-7.48,17.15,17.15,0,0,0-2.4-6,11.6,11.6,0,0,0-4.48-4,15,15,0,0,0-6.78-1.4,14.23,14.23,0,0,0-6.36,1.36,13.83,13.83,0,0,0-4.7,3.64,16.11,16.11,0,0,0-2.88,5.11,17.5,17.5,0,0,0-1,5.77,16.22,16.22,0,0,0,1.1,6.26,11.13,11.13,0,0,0,3.13,4.31,12.33,12.33,0,0,0,4.73,2.41,22.75,22.75,0,0,0,5.87.72h3.65a5.09,5.09,0,0,1-.74,1.58,5.74,5.74,0,0,1-2.15,1.72,14,14,0,0,1-3.89,1.18,36.38,36.38,0,0,1-6,.41h-2.22v9.78h2.78c7.18,0,12.67-1.2,16.29-3.59s5.75-6.05,6.5-11.08h106l7.3-8.42,0-.15a12.79,12.79,0,0,0,.28-2.57,1.51,1.51,0,0,0,0-.3A16.9,16.9,0,0,0,338.64,118Zm-123,3v3.64h-4.07a5.15,5.15,0,0,1-3.46-1.1c-.83-.7-1.25-2.11-1.25-4.17a7.39,7.39,0,0,1,1.08-4.11,3.59,3.59,0,0,1,3.28-1.51,3.39,3.39,0,0,1,3.42,1.9A12.55,12.55,0,0,1,215.59,120.9Z"/><path class="cls-3" d="M187.53,112.48,181.08,102l-.49.3q-2.21,1.35-4.21,2.66c-1.35.87-2.72,1.78-4.13,2.72l-.49.32,5.9,8.81,2.15,3.18c.54.81.94,1.43,1.21,1.9a4.9,4.9,0,0,1,.47,1,2.92,2.92,0,0,1,.08.71c0,.2,0,.44-.52.61a7.47,7.47,0,0,1-2.34.28H164.3v9.28H182a13.48,13.48,0,0,0,4.72-.74,9,9,0,0,0,3.31-2,8.1,8.1,0,0,0,1.93-3,10.32,10.32,0,0,0,.64-3.66,12.37,12.37,0,0,0-1.29-5.11A68,68,0,0,0,187.53,112.48Z"/><path class="cls-3" d="M148.85,129.29a34.63,34.63,0,0,1-.24,4.4,6.45,6.45,0,0,1-1,2.85,4.18,4.18,0,0,1-2.21,1.57,15.39,15.39,0,0,1-4.38.61h-.57v9.77h.6a34.51,34.51,0,0,0,8.86-1.08,11.63,11.63,0,0,0,5.64-3.38,13.31,13.31,0,0,0,2.84-6,41.09,41.09,0,0,0,.79-8.73v-21.6H148.85Z"/></g></g></svg>